<svg width="826" height="826" viewBox="0 0 826 826" fill="none" xmlns="http://www.w3.org/2000/svg">
<g clip-path="url(#clip0_1620_3965)">
<g filter="url(#filter0_f_1620_3965)">
<path fill-rule="evenodd" clip-rule="evenodd" d="M826 0.00012207H0V826H826V0.00012207ZM413 678C575.372 678 707 546.372 707 384C707 221.628 575.372 90 413 90C250.628 90 119 221.628 119 384C119 546.372 250.628 678 413 678Z" fill="#03010D"/>
</g>
<rect y="628.812" width="826" height="197.188" fill="url(#paint0_linear_1620_3965)"/>
<rect x="646" y="826" width="826" height="180" transform="rotate(-90 646 826)" fill="url(#paint1_linear_1620_3965)"/>
<rect x="180" width="818.332" height="180" transform="rotate(90 180 0)" fill="url(#paint2_linear_1620_3965)"/>
<rect x="826" y="197.188" width="826" height="197.188" transform="rotate(-180 826 197.188)" fill="url(#paint3_linear_1620_3965)"/>
</g>
<defs>
<filter id="filter0_f_1620_3965" x="-15" y="-14.9999" width="856" height="856" filterUnits="userSpaceOnUse" color-interpolation-filters="sRGB">
<feFlood flood-opacity="0" result="BackgroundImageFix"/>
<feBlend mode="normal" in="SourceGraphic" in2="BackgroundImageFix" result="shape"/>
<feGaussianBlur stdDeviation="7.5" result="effect1_foregroundBlur_1620_3965"/>
</filter>
<linearGradient id="paint0_linear_1620_3965" x1="413" y1="628.812" x2="413" y2="826" gradientUnits="userSpaceOnUse">
<stop stop-color="#03010D" stop-opacity="0"/>
<stop offset="1" stop-color="#03010D"/>
</linearGradient>
<linearGradient id="paint1_linear_1620_3965" x1="1059" y1="826" x2="1059" y2="1006" gradientUnits="userSpaceOnUse">
<stop stop-color="#03010D" stop-opacity="0"/>
<stop offset="1" stop-color="#03010D"/>
</linearGradient>
<linearGradient id="paint2_linear_1620_3965" x1="589.166" y1="0" x2="589.166" y2="180" gradientUnits="userSpaceOnUse">
<stop stop-color="#03010D" stop-opacity="0"/>
<stop offset="1" stop-color="#03010D"/>
</linearGradient>
<linearGradient id="paint3_linear_1620_3965" x1="1239" y1="197.188" x2="1239" y2="394.377" gradientUnits="userSpaceOnUse">
<stop stop-color="#03010D" stop-opacity="0"/>
<stop offset="1" stop-color="#03010D"/>
</linearGradient>
<clipPath id="clip0_1620_3965">
<rect width="826" height="826" fill="white"/>
</clipPath>
</defs>
</svg>
