<svg width="559" height="559" viewBox="0 0 559 559" fill="none" xmlns="http://www.w3.org/2000/svg">
<path opacity="0.6" fill-rule="evenodd" clip-rule="evenodd" d="M225 7.34994V5.31057C96.7259 30.6637 0 143.786 0 279.5C0 308.585 4.44248 336.632 12.6859 363H14.7827C6.47809 336.647 2 308.596 2 279.5C2 144.895 97.8378 32.6736 225 7.34994ZM333 7.15271V5.11482C461.771 30.0763 559 143.434 559 279.5C559 308.585 554.557 336.632 546.314 363H544.217C552.522 336.647 557 308.596 557 279.5C557 144.542 460.659 32.0858 333 7.15271ZM279.764 0.00012207C279.676 4.0696e-05 279.588 0 279.5 0C279.412 0 279.324 4.0696e-05 279.236 0.00012207H279.764ZM279.5 559C199.243 559 126.887 525.174 75.911 471H78.666C129.204 523.985 200.496 557 279.5 557C358.504 557 429.796 523.985 480.334 471H483.089C432.113 525.174 359.757 559 279.5 559Z" fill="#FF66C4"/>
</svg>
