<svg width="559" height="559" viewBox="0 0 559 559" fill="none" xmlns="http://www.w3.org/2000/svg">
<circle cx="279.5" cy="279.5" r="278.5" stroke="#FF66C4" stroke-width="2"/>
<rect x="450" y="363" width="108" height="108" fill="#D9D9D9"/>
<rect x="1" y="363" width="108" height="108" fill="#D9D9D9"/>
<rect x="225" width="108" height="108" fill="#D9D9D9"/>
<path d="M276.456 10.9792L279.418 5.98163L279.643 6.36312L279.999 6.15341L280.354 6.36403L280.58 5.98268L283.53 10.9798L282.668 11.4881L283.677 13.1964L284.538 12.6881L287.563 17.8131L286.702 18.3214L287.71 20.0297L288.571 19.5214L291.596 24.6464L290.735 25.1547L291.743 26.8631L292.605 26.3547L295.63 31.4797L294.768 31.988L295.777 33.6964L296.638 33.188L299.663 38.313L298.802 38.8213L299.81 40.5297L300.671 40.0214L303.696 45.1463L302.835 45.6546L303.843 47.363L304.704 46.8547L307.729 51.9797L306.868 52.488L307.877 54.1963L308.738 53.688L311.763 58.813L310.902 59.3213L311.91 61.0296L312.771 60.5213L315.796 65.6463L314.935 66.1546L315.943 67.8629L316.804 67.3546L319.829 72.4796L318.968 72.9879L319.977 74.6962L320.838 74.1879L323.863 79.3129L323.002 79.8212L324.01 81.5295L324.871 81.0212L327.896 86.1462L327.035 86.6545L328.043 88.3628L328.904 87.8545L331.929 92.9795L331.068 93.4878L332.077 95.1961L332.938 94.6878L335.963 99.8128L335.102 100.321L336.11 102.029L336.971 101.521L339.996 106.646L339.135 107.154L340.143 108.863L341.004 108.354L344.029 113.479L343.168 113.988L344.176 115.696L345.038 115.188L348.063 120.313L347.201 120.821L348.21 122.529L349.071 122.021L352.096 127.146L351.235 127.654L352.243 129.363L353.104 128.854L356.129 133.979L355.268 134.488L356.276 136.196L357.138 135.688L360.163 140.813L359.301 141.321L360.31 143.029L361.171 142.521L364.196 147.646L363.335 148.154L364.343 149.863L365.204 149.354L368.229 154.479L367.368 154.988L368.376 156.696L369.238 156.188L372.263 161.313L371.401 161.821L372.41 163.529L373.271 163.021L376.296 168.146L375.435 168.654L376.443 170.363L377.304 169.854L380.329 174.979L379.468 175.488L380.476 177.196L381.338 176.688L384.363 181.813L383.501 182.321L384.51 184.029L385.371 183.521L388.396 188.646L387.535 189.154L388.543 190.862L389.404 190.354L392.429 195.479L391.568 195.987L392.576 197.696L393.438 197.187L396.462 202.312L395.601 202.821L396.61 204.529L397.471 204.021L400.496 209.146L399.635 209.654L400.643 211.362L401.504 210.854L404.529 215.979L403.668 216.487L404.676 218.196L405.537 217.687L408.562 222.812L407.701 223.321L408.71 225.029L409.571 224.521L412.596 229.646L411.735 230.154L412.743 231.862L413.604 231.354L416.629 236.479L415.768 236.987L416.776 238.696L417.637 238.187L420.662 243.312L419.801 243.821L420.81 245.529L421.671 245.021L424.696 250.146L423.835 250.654L424.843 252.362L425.704 251.854L428.729 256.979L427.868 257.487L428.876 259.196L429.737 258.687L432.762 263.812L431.901 264.321L432.91 266.029L433.771 265.521L436.796 270.646L435.935 271.154L436.943 272.862L437.804 272.354L440.829 277.479L439.968 277.987L440.976 279.696L441.837 279.188L444.862 284.312L444.001 284.821L445.01 286.529L445.871 286.021L448.896 291.146L448.035 291.654L449.043 293.362L449.904 292.854L452.929 297.979L452.068 298.487L453.076 300.196L453.938 299.688L456.962 304.812L456.101 305.321L457.11 307.029L457.971 306.521L460.996 311.646L460.135 312.154L461.143 313.862L462.004 313.354L465.029 318.479L464.168 318.987L465.176 320.696L466.038 320.187L469.062 325.312L468.201 325.821L469.21 327.529L470.071 327.021L473.096 332.146L472.235 332.654L473.243 334.362L474.104 333.854L477.129 338.979L476.268 339.487L477.276 341.196L478.137 340.688L481.163 345.812L480.301 346.321L481.31 348.029L482.171 347.521L485.196 352.646L484.335 353.154L485.343 354.862L486.204 354.354L489.229 359.479L488.368 359.987L489.376 361.696L490.237 361.188L493.263 366.312L492.401 366.821L493.41 368.529L494.271 368.021L497.296 373.146L496.435 373.654L497.443 375.362L498.304 374.854L501.329 379.979L500.468 380.487L501.476 382.196L502.337 381.688L505.362 386.812L504.501 387.321L505.51 389.029L506.371 388.521L509.396 393.646L508.535 394.154L509.543 395.862L510.404 395.354L513.429 400.479L512.568 400.987L513.576 402.696L514.438 402.188L517.462 407.312L516.601 407.821L517.61 409.529L518.471 409.021L521.41 414H521.006V414.435L520.635 414.654L520.839 415H515.043V414H513.055V415H507.092V414H505.104V415H499.141V414H497.153V415H491.19V414H489.203V415H483.239V414H481.252V415H475.289V414H473.301V415H467.338V414H465.35V415H459.387V414H457.399V415H451.436V414H449.448V415H443.485V414H441.498V415H435.535V414H433.547V415H427.584V414H425.596V415H419.633V414H417.645V415H411.682V414H409.694V415H403.731V414H401.744V415H395.781V414H393.793V415H387.83V414H385.842V415H379.879V414H377.891V415H371.928V414H369.94V415H363.977V414H361.99V415H356.027V414H354.039V415H348.076V414H346.088V415H340.125V414H338.137V415H332.174V414H330.186V415H324.223V414H322.236V415H316.272V414H314.285V415H308.322V414H306.334V415H300.371V414H298.383V415H292.42V414H290.432V415H284.469V414H282.482V415H276.518V414H274.531V415H268.568V414H266.58V415H260.617V414H258.629V415H252.666V414H250.678V415H244.715V414H242.727V415H236.764V414H234.777V415H228.813V414H226.826V415H220.863V414H218.875V415H212.912V414H210.924V415H204.961V414H202.973V415H197.01V414H195.023V415H189.059V414H187.072V415H181.109V414H179.121V415H173.158V414H171.17V415H165.207V414H163.219V415H157.256V414H155.268V415H149.305V414H147.318V415H141.354V414H139.367V415H133.404V414H131.416V415H125.453V414H123.465V415H117.502V414H115.514V415H109.551V414H107.564V415H101.6V414H99.6127V415H93.6496V414H91.6619V415H85.6988V414H83.7111V415H77.748V414H75.7603V415H69.7971V414H67.8094V415H61.8463V414H59.8586V415H53.8955V414H51.9078V415H45.9447V414H43.957V415H38.1624L38.3665 414.656L37.9939 414.435V414H37.5927L40.5437 409.021L41.404 409.531L42.4165 407.822L41.5562 407.313L44.5937 402.188L45.454 402.697L46.4665 400.989L45.6062 400.479L48.6437 395.354L49.504 395.864L50.5165 394.156L49.6562 393.646L52.6937 388.521L53.554 389.031L54.5665 387.322L53.7062 386.812L56.7437 381.688L57.604 382.197L58.6165 380.489L57.7562 379.979L60.7937 374.854L61.654 375.364L62.6665 373.656L61.8062 373.146L64.8437 368.021L65.704 368.531L66.7165 366.822L65.8562 366.312L68.8937 361.188L69.754 361.697L70.7665 359.989L69.9062 359.479L72.9437 354.354L73.804 354.864L74.8165 353.156L73.9562 352.646L76.9937 347.521L77.854 348.031L78.8665 346.322L78.0062 345.813L81.0437 340.688L81.904 341.197L82.9165 339.489L82.0562 338.979L85.0937 333.854L85.954 334.364L86.9665 332.656L86.1062 332.146L89.1437 327.021L90.004 327.531L91.0165 325.822L90.1562 325.313L93.1937 320.188L94.054 320.697L95.0665 318.989L94.2062 318.479L97.2437 313.354L98.104 313.864L99.1165 312.156L98.2562 311.646L101.294 306.521L102.154 307.031L103.166 305.322L102.306 304.813L105.344 299.688L106.204 300.197L107.217 298.489L106.356 297.979L109.394 292.854L110.254 293.364L111.267 291.656L110.406 291.146L113.444 286.021L114.304 286.531L115.316 284.822L114.456 284.312L117.494 279.188L118.354 279.697L119.367 277.989L118.506 277.479L121.544 272.354L122.404 272.864L123.417 271.156L122.556 270.646L125.594 265.521L126.454 266.031L127.466 264.322L126.606 263.812L129.644 258.688L130.504 259.197L131.516 257.489L130.656 256.979L133.694 251.854L134.554 252.364L135.567 250.656L134.706 250.146L137.744 245.021L138.604 245.531L139.617 243.822L138.756 243.312L141.794 238.188L142.654 238.697L143.667 236.989L142.806 236.479L145.844 231.354L146.704 231.864L147.717 230.156L146.856 229.646L149.894 224.521L150.754 225.031L151.766 223.322L150.906 222.813L153.944 217.688L154.804 218.197L155.817 216.489L154.956 215.979L157.994 210.854L158.854 211.364L159.867 209.656L159.006 209.146L162.044 204.021L162.904 204.531L163.917 202.822L163.056 202.312L166.094 197.188L166.954 197.697L167.966 195.989L167.106 195.479L170.144 190.354L171.004 190.864L172.017 189.156L171.156 188.646L174.194 183.521L175.054 184.031L176.066 182.322L175.206 181.813L178.244 176.688L179.104 177.197L180.117 175.489L179.256 174.979L182.294 169.854L183.154 170.364L184.167 168.656L183.306 168.146L186.344 163.021L187.204 163.531L188.217 161.822L187.356 161.312L190.394 156.188L191.254 156.697L192.267 154.989L191.406 154.479L194.444 149.354L195.304 149.864L196.316 148.156L195.456 147.646L198.494 142.521L199.354 143.031L200.367 141.322L199.506 140.812L202.544 135.688L203.404 136.197L204.417 134.489L203.556 133.979L206.594 128.854L207.454 129.364L208.467 127.656L207.606 127.146L210.644 122.021L211.504 122.531L212.517 120.822L211.656 120.312L214.694 115.188L215.554 115.697L216.566 113.989L215.706 113.479L218.744 108.354L219.604 108.864L220.617 107.156L219.756 106.646L222.794 101.521L223.654 102.031L224.667 100.322L223.806 99.8125L226.844 94.6875L227.704 95.1974L228.717 93.489L227.856 92.9792L230.894 87.8542L231.754 88.364L232.767 86.6557L231.906 86.1458L234.944 81.0208L235.804 81.5307L236.817 79.8224L235.956 79.3125L238.994 74.1875L239.854 74.6974L240.867 72.989L240.006 72.4792L243.044 67.3542L243.904 67.864L244.917 66.1557L244.056 65.6458L247.094 60.5208L247.954 61.0307L248.967 59.3224L248.106 58.8125L251.144 53.6875L252.004 54.1974L253.017 52.489L252.156 51.9792L255.194 46.8542L256.054 47.364L257.067 45.6557L256.206 45.1458L259.244 40.0208L260.104 40.5307L261.117 38.8224L260.256 38.3125L263.294 33.1875L264.154 33.6974L265.167 31.989L264.306 31.4792L267.344 26.3542L268.204 26.864L269.217 25.1557L268.356 24.6458L271.394 19.5208L272.254 20.0307L273.267 18.3224L272.406 17.8125L275.444 12.6875L276.304 13.1974L277.317 11.489L276.456 10.9792Z" stroke="white" stroke-opacity="0.4" stroke-width="2" stroke-dasharray="2 6"/>
<rect x="37" y="362" width="54" height="57" fill="#D9D9D9"/>
<rect x="468" y="362" width="54" height="58" fill="#D9D9D9"/>
<rect x="240" y="5" width="80" height="54" fill="#D9D9D9"/>
</svg>
