<svg width="216" height="26" viewBox="0 0 216 26" fill="none" xmlns="http://www.w3.org/2000/svg">
<path d="M9.71175 12.2615C9.8465 11.9997 10.0047 11.7031 10.1863 11.3797L5.26287 9.76563C4.83761 9.62604 4.42368 9.42059 4.03229 9.15488C4.03131 9.15425 4.03033 9.15363 4.02932 9.15287C4.02909 9.15273 4.02883 9.15267 4.02849 9.15234L1.73681 7.59377C1.73617 7.59326 1.73557 7.59288 1.73496 7.59249L0.179871 6.53488L3.19853 10.5268C3.73563 11.2371 4.40286 11.7697 5.12808 12.067L9.1873 13.7314C9.31583 13.1911 9.48852 12.6953 9.71175 12.2615Z" fill="#FF66C4"/>
<path d="M12.5859 8.91124L11.824 7.9522C11.8235 7.95168 11.8231 7.95098 11.8226 7.95041L10.2437 5.96299C10.2434 5.96262 10.243 5.96222 10.2428 5.96166L9.67645 5.24893C9.27998 4.74979 8.82015 4.35935 8.32594 4.09256C8.3217 4.09049 8.31726 4.08942 8.31306 4.08703C8.30797 4.08436 8.30393 4.08039 8.29908 4.07754C7.89988 3.86619 7.47853 3.73571 7.04961 3.69509L2.36787 3.25287L6.32922 4.87401C7.19732 5.22928 7.97915 5.87405 8.59036 6.73856L11.2402 10.4867C11.6492 9.96325 12.0978 9.43295 12.5859 8.91124Z" fill="#FF66C4"/>
<path d="M34.0056 6.73856C34.6169 5.87406 35.3988 5.22931 36.2668 4.87401L40.2281 3.25287L35.5464 3.69509C35.1175 3.73571 34.6962 3.86622 34.2969 4.07754C34.2921 4.08039 34.288 4.08436 34.283 4.08703C34.2787 4.08943 34.2743 4.09049 34.2701 4.09256C33.7759 4.35935 33.316 4.74979 32.9196 5.24893L32.3532 5.96166C32.353 5.96222 32.3527 5.96265 32.3523 5.96299L30.7735 7.95045C30.7729 7.95098 30.7725 7.95168 30.7721 7.95223L30.0101 8.91124C30.4982 9.43295 30.9468 9.96325 31.3558 10.4867L34.0056 6.73856Z" fill="#FF66C4"/>
<path d="M32.8843 12.2615C33.1075 12.6953 33.2802 13.1911 33.4088 13.7314L37.4679 12.067C38.1932 11.7697 38.8605 11.2371 39.3974 10.5268L42.4161 6.53488L40.8613 7.59222C40.8606 7.5927 40.8598 7.59324 40.859 7.59385L38.5674 9.15232C38.5671 9.15265 38.5668 9.1527 38.5666 9.15286C38.5656 9.15362 38.5647 9.15424 38.5637 9.15487C38.1724 9.42061 37.7583 9.62602 37.3333 9.76546L32.4097 11.3797C32.5913 11.7031 32.7495 11.9997 32.8843 12.2615Z" fill="#FF66C4"/>
<path d="M6.92366 15.7789L5.68338 15.8256C5.14099 15.8461 4.59122 15.7521 4.05977 15.5533C4.05229 15.5503 4.04466 15.5479 4.03738 15.5445C3.51674 15.3467 3.01398 15.0489 2.55375 14.6591L1.34653 13.6364C1.3461 13.6362 1.34573 13.6357 1.34536 13.6355L0.179871 12.6483L2.78448 16.3087C3.61469 17.4755 4.76697 18.1734 5.9459 18.2235L8.31748 18.3244C8.1642 17.4885 8.04684 16.6124 7.98086 15.7392L6.92435 15.7789C6.92412 15.779 6.92384 15.7789 6.92366 15.7789Z" fill="#FF66C4"/>
<path d="M41.3784 13.6365L40.171 14.6591C39.7107 15.0491 39.208 15.3467 38.6873 15.5445C38.6801 15.548 38.6725 15.5504 38.6651 15.5534C38.1337 15.7522 37.5839 15.8462 37.0414 15.8256L35.801 15.7789C35.8008 15.7789 35.8006 15.779 35.8005 15.779L34.7438 15.7392C34.6779 16.6124 34.5605 17.4885 34.4073 18.3244L36.7788 18.2235C37.9578 18.1734 39.11 17.4755 39.9403 16.3087L42.5448 12.6483L41.3792 13.6357C41.379 13.6359 41.3786 13.6362 41.3784 13.6365Z" fill="#FF66C4"/>
<path d="M29.9622 21.9747C28.3211 21.9652 26.7284 21.4541 25.1881 20.9596C23.7017 20.4825 22.2976 20.0319 20.9169 20.0319C19.5362 20.0319 18.1323 20.4825 16.6457 20.9596C15.1055 21.4541 13.5128 21.9652 11.8716 21.9747C11.8565 21.9748 11.8411 21.9748 11.826 21.9748C11.0108 21.9748 10.2349 21.8472 9.49042 21.5888C9.96147 21.8859 10.5145 22.1827 11.1582 22.4674C13.0232 23.2925 16.2301 24.2759 20.9169 24.2759C25.6038 24.2759 28.8106 23.2925 30.6756 22.4674C31.3193 22.1827 31.8725 21.8859 32.3436 21.5887C31.5991 21.8472 30.823 21.9748 30.0079 21.9748C29.9926 21.9748 29.9775 21.9748 29.9622 21.9747Z" fill="white"/>
<path d="M21.3402 3.05597C27.224 3.05597 31.9175 7.30417 33.6624 9.13059H9.01794C10.7629 7.30417 15.4564 3.05597 21.3402 3.05597Z" fill="white"/>
<path d="M35.3292 12.9057C35.3246 12.8838 35.3232 12.8621 35.3221 12.8405C35.1342 11.9762 34.8757 11.1492 34.5353 10.4431C34.5334 10.4405 34.5313 10.4381 34.5294 10.4355C34.508 10.4038 34.4934 10.3695 34.4818 10.3346C34.2469 9.86819 33.9752 9.458 33.6624 9.13059C31.9175 7.30416 27.224 6.47002 21.3402 6.47002C15.4564 6.47002 10.7629 7.30416 9.01795 9.13059C8.70514 9.458 8.43344 9.86819 8.19861 10.3346C8.18715 10.3695 8.17241 10.4038 8.15101 10.4355C8.14911 10.4381 8.14694 10.4405 8.14509 10.4431C7.80466 11.1492 7.54616 11.9762 7.35825 12.8405C7.35719 12.8621 7.35576 12.8838 7.35127 12.9057C7.34604 12.9309 7.33817 12.9549 7.32887 12.9778C6.83011 15.3761 6.86619 18.0235 7.19949 19.1473C7.20462 19.1647 7.21091 19.1828 7.21719 19.2007C10.4796 21.7754 13.6392 20.8514 16.6958 19.9574C18.2214 19.5111 19.7992 19.0496 21.3402 19.0496C22.8812 19.0496 24.4589 19.5111 25.9848 19.9574C29.0411 20.8517 32.2007 21.7754 35.4632 19.2007C35.4694 19.1828 35.4758 19.1647 35.4809 19.1473C35.8142 18.0235 35.8503 15.3761 35.3515 12.9778C35.3423 12.9549 35.3343 12.9309 35.3292 12.9057ZM14.7131 13.5307C14.3003 14.3182 13.7146 14.8679 13.1461 15.0012C13.056 15.0224 12.9679 15.0329 12.8821 15.0329C12.6683 15.0329 12.4703 14.9675 12.2996 14.8389C11.6408 14.3426 11.628 13.0449 12.2699 11.8204C12.6826 11.0328 13.2684 10.4831 13.8368 10.3499C14.1517 10.2761 14.4444 10.3321 14.6832 10.5122C15.3419 11.0086 15.3547 12.3062 14.7131 13.5307ZM30.3807 14.8389C30.2102 14.9675 30.012 15.0327 29.7982 15.0329C29.7125 15.0329 29.6243 15.0224 29.5343 15.0012C28.9658 14.8679 28.3801 14.3182 27.9673 13.5307C27.3257 12.3062 27.3384 11.0086 27.9972 10.5122C28.236 10.3322 28.5288 10.2761 28.8437 10.3499C29.412 10.4831 29.9977 11.0328 30.4106 11.8204C31.0524 13.0449 31.0395 14.3426 30.3807 14.8389Z" fill="#FF66C4"/>
<path d="M69.368 10.756V8.104C69.368 6.622 68.172 5.452 66.716 5.452H54.652C53.17 5.452 52 6.622 52 8.104C52 8.182 52 8.286 52 8.364V9.378C52 11.51 53.56 12.316 55.874 13.252L62.582 15.696H52V18.348C52 19.83 53.17 21 54.652 21H66.716C68.172 21 69.368 19.83 69.368 18.348C69.368 18.296 69.368 18.218 69.368 18.14V18.166V17.126C69.368 14.994 67.782 14.188 65.494 13.252L58.604 10.756H69.368ZM87.4581 5.452H82.2061V13.876C82.2061 15.098 81.2181 16.06 80.0221 16.06H78.0721C76.8761 16.06 75.8881 15.098 75.8881 13.876V5.452H70.6621V15.774C70.6621 18.66 73.0021 21 75.8881 21H82.2061C85.0921 21 87.4581 18.66 87.4581 15.774V5.452ZM100.414 9.482V11.276H93.8616V9.482H100.414ZM105.25 9.716C105.25 7.376 103.352 5.478 101.012 5.478V5.452H90.7676V5.478H88.7656V21H93.8616V15.722H101.012C103.352 15.722 105.25 13.85 105.25 11.51V9.716ZM113.299 9.638H122.893V5.452H106.955H106.539V21H113.299H122.893V16.814H113.299V15.332H122.893V11.12H113.299V9.638ZM136.665 10.366V10.522C136.665 11.016 135.833 11.432 134.793 11.432H129.437V9.456H134.793C135.833 9.456 136.665 9.872 136.665 10.366ZM143.295 21L140.071 14.708C141.007 13.928 141.579 12.732 141.579 11.406V9.82C141.579 7.402 139.629 5.452 137.211 5.452H129.437H124.575H124.211V21H129.437V15.774H135.235L137.913 21H143.295ZM161.213 21V15.852H150.189V5.452H144.625V21H151.307H161.213ZM175.473 11.536V14.916C175.473 15.722 174.823 16.372 174.017 16.372H168.401C167.621 16.372 166.971 15.722 166.971 14.916V11.536C166.971 10.73 167.621 10.08 168.401 10.08H174.017C174.823 10.08 175.473 10.73 175.473 11.536ZM179.919 10.184C179.919 7.558 177.787 5.452 175.161 5.452H167.257C164.631 5.452 162.525 7.558 162.525 10.184V16.268C162.525 18.894 164.631 21 167.257 21H175.161C177.787 21 179.919 18.894 179.919 16.268V10.184ZM196.761 10.964V5.452H191.717H186.231H181.213V10.964H186.231V21H191.717V10.964H196.761ZM214.66 21V15.852H203.636V5.452H198.072V21H204.754H214.66Z" fill="white"/>
</svg>
