<?xml version="1.0" standalone="no"?>
<!DOCTYPE svg PUBLIC "-//W3C//DTD SVG 1.1//EN" "http://www.w3.org/Graphics/SVG/1.1/DTD/svg11.dtd" >
<svg xmlns="http://www.w3.org/2000/svg" xmlns:xlink="http://www.w3.org/1999/xlink" version="1.1">
<metadata>
Created by FontForge 20200314 at Sat Feb 15 00:37:25 2020
 By User Azfonts
 
</metadata>
<defs>
<font id="WildWorldBOLD" horiz-adv-x="622" >
  <font-face 
    font-family="Wild World"
    font-weight="500"
    font-stretch="normal"
    units-per-em="1000"
    panose-1="0 0 0 0 0 0 0 0 0 0"
    ascent="800"
    descent="-200"
    x-height="598.864"
    cap-height="875"
    bbox="-42.8574 -19.3574 1602.53 966.07"
    underline-thickness="0"
    underline-position="0"
    unicode-range="U+000D-00A0"
  />
<missing-glyph horiz-adv-x="650" 
 />
    <glyph glyph-name=".notdef" horiz-adv-x="650" 
 />
    <glyph glyph-name="controlCR" unicode="&#xd;" 
 />
    <glyph glyph-name="space" unicode=" " 
 />
    <glyph glyph-name="exclam" unicode="!" horiz-adv-x="345" 
d="M147.34 289.345c79.9004 0 144.673 -64.7725 144.673 -144.673v0c0 -79.9004 -64.7725 -144.673 -144.673 -144.673v0c-79.9004 0 -144.673 64.7725 -144.673 144.673v0c0 79.9004 64.7725 144.673 144.673 144.673v0zM271.376 325.457h-248.071l-23.3037 549.535
h294.679z" />
    <glyph glyph-name="quotedbl" unicode="&#x22;" horiz-adv-x="562" 
d="M302.309 929.038h209.758v-400.966h-81.0938c-71.0586 0 -128.664 57.6045 -128.664 128.664v272.302zM0 656.736v272.302h209.757v-400.966h-81.0918c-71.0596 0 -128.665 57.6045 -128.665 128.664z" />
    <glyph glyph-name="quotesingle" unicode="'" horiz-adv-x="260" 
d="M0 914.752h209.758v-400.966h-81.0938c-71.0586 0 -128.664 57.6045 -128.664 128.664v272.302z" />
    <glyph glyph-name="parenleft" unicode="(" horiz-adv-x="475" 
d="M425.046 580.313h-130.366v-285.635h130.366v-294.679h-130.366h-143.479c-83.5049 0 -151.199 67.6943 -151.199 151.199v143.479v285.635v143.479c0 83.5049 67.6943 151.199 151.199 151.199h143.479h130.366v-294.679z" />
    <glyph glyph-name="parenright" unicode=")" horiz-adv-x="475" 
d="M0 580.313v294.679h130.366h143.479c83.5049 0 151.199 -67.6943 151.199 -151.199v-143.479v-285.635v-143.479c0 -83.5049 -67.6943 -151.199 -151.199 -151.199h-143.479h-130.366v294.679h130.366v285.635h-130.366z" />
    <glyph glyph-name="plus" unicode="+" horiz-adv-x="925" 
d="M874.998 675.892v-294.69h-290.129v-290.13h-294.691v290.13h-290.179v294.69h290.179v290.179h294.691v-290.179h290.129z" />
    <glyph glyph-name="hyphen" unicode="-" horiz-adv-x="714" 
d="M0 647.334h663.514v-294.69h-663.514v294.69z" />
    <glyph glyph-name="period" unicode="." horiz-adv-x="339" 
d="M144.673 0v0c-79.9004 0 -144.673 64.7725 -144.673 144.673v0c0 79.9004 64.7725 144.673 144.673 144.673v0c79.9004 0 144.673 -64.7725 144.673 -144.673v0c0 -79.9004 -64.7725 -144.673 -144.673 -144.673z" />
    <glyph glyph-name="slash" unicode="/" horiz-adv-x="670" 
d="M294.679 0h-294.679l325.296 874.992h294.679z" />
    <glyph glyph-name="zero" unicode="0" horiz-adv-x="1007" 
d="M559.444 609.151c0 44.6484 -36.1992 80.8477 -80.8594 80.8477c-44.6484 0 -80.8477 -36.1992 -80.8477 -80.8477v-361.905c0 -44.6543 36.1992 -80.8535 80.8477 -80.8535c44.6602 0 80.8594 36.1992 80.8594 80.8535v361.905zM957.181 595.457v-334.518
c0 -144.109 -116.83 -260.939 -260.939 -260.939h-435.302c-144.109 0 -260.939 116.83 -260.939 260.939v334.518c0 144.109 116.83 260.934 260.939 260.934h435.302c144.109 0 260.939 -116.824 260.939 -260.934z" />
    <glyph glyph-name="one" unicode="1" horiz-adv-x="476" 
d="M425.802 858.512v-2.13281v-300.137v-556.241h-302.264v556.241h-123.538l123.538 302.27h302.264z" />
    <glyph glyph-name="two" unicode="2" horiz-adv-x="906" 
d="M856.427 858.512v-214.134v-53.3564v-0.28418h-0.422852l-588.742 -314.188h513.008c42.0615 0 76.1582 -34.2715 76.1582 -76.5449v-200.005h-856.427v192.812v78.5879l7.85645 5.14941l588.742 314.188h-330.1v-104.925h-266.476v104.925h-0.0244141v191.229
c0 42.2734 34.0967 76.5449 76.1582 76.5449h780.269z" />
    <glyph glyph-name="three" unicode="3" horiz-adv-x="1006" 
d="M955.804 716.444v-152.673v-271.189v-152.673c0 -77.2822 -62.6328 -139.909 -139.915 -139.909h-51.5498h-624.362c-77.3545 -0 -139.976 62.627 -139.976 139.909v152.673h668.926v35.2871h-668.926v200.621h668.926v35.2812h-668.926v152.673
c0 77.2822 62.6211 139.909 139.903 139.909h624.435h51.4775c77.3545 0 139.987 -62.627 139.987 -139.909z" />
    <glyph glyph-name="four" unicode="4" horiz-adv-x="991" 
d="M549.739 463.513v217.748l-303.098 -217.748h303.098zM940.538 198.845l-63.3105 0.000976562v-198.844h-327.489v198.844h-549.739v264.668l549.739 391.929v0.936523h327.489v-392.866h63.3105v-264.668z" />
    <glyph glyph-name="five" unicode="5" horiz-adv-x="906" 
d="M208.229 410.138l648.197 0.000976562v-410.138h-856.427v168.077h672.044v87.3682h-672.044v600.98h856.427v-354.744h-648.197v-91.5449z" />
    <glyph glyph-name="six" unicode="6" horiz-adv-x="902" 
d="M303.437 344.646v-75.7295c0 -11.5127 13.2471 -20.8496 29.5879 -20.8496h235.376c16.3408 0 29.5879 9.33691 29.5879 20.8496v75.7295c0 11.5186 -13.2471 20.8555 -29.5879 20.8555h-235.376c-16.3408 0 -29.5879 -9.33691 -29.5879 -20.8555zM303.448 628.785
v-93.2744h463.355c47.2588 0 85.6221 -42.5693 85.6221 -95.0977v-345.316c0 -52.5283 -38.3633 -95.0977 -85.6221 -95.0977h-680.819c-47.2715 0 -85.6348 42.5693 -85.6348 95.0977v152.951h-0.350586v464.54c0 65.6426 40.7441 120.97 96.3555 138.224
c11.7119 3.65039 24.0527 5.61426 36.8887 5.61426h170.205h548.978v-227.641h-548.978z" />
    <glyph glyph-name="seven" unicode="7" horiz-adv-x="973" 
d="M922.976 856.354l-66.5488 -109.826l-131.358 -216.769l-320.986 -529.76h-399.03l374.651 613.255h-379.703v243.939z" />
    <glyph glyph-name="eight" unicode="8" horiz-adv-x="854" 
d="M252.902 635.978c0 -25.4785 20.6562 -46.1406 46.1348 -46.1406h206.223c25.4785 0 46.1348 20.6621 46.1348 46.1406v28.8994c0 25.4785 -20.6562 46.1406 -46.1348 46.1406h-206.223c-25.4785 0 -46.1348 -20.6621 -46.1348 -46.1406v-28.8994zM572.571 325.477
c0 25.1348 -20.3662 45.5068 -45.4941 45.5068h-249.844c-25.1406 0 -45.5068 -20.3721 -45.5068 -45.5068v-51.8213c0 -25.1279 20.3662 -45.5 45.5068 -45.5h249.844c25.1279 0 45.4941 20.3721 45.4941 45.5v51.8213zM665.434 468.329
c76.6904 0 138.864 -62.1738 138.864 -138.87v-190.589c0 -76.6963 -62.1738 -138.87 -138.864 -138.87h-526.557c-76.7021 -0 -138.876 62.1738 -138.876 138.87v190.589c0 76.6963 62.1738 138.87 138.876 138.87c-76.7021 0 -138.876 62.1738 -138.876 138.87v110.31
c0 76.6963 62.1738 138.87 138.876 138.87h526.557c76.6904 0 138.864 -62.1738 138.864 -138.87v-110.31c0 -76.6963 -62.1738 -138.87 -138.864 -138.87z" />
    <glyph glyph-name="nine" unicode="9" horiz-adv-x="892" 
d="M541.677 593.438h-238.023v-61.3643h238.023v61.3643zM125.834 856.354l590.025 -0.000976562c69.498 0 125.834 -56.3359 125.834 -125.834v-730.52h-841.693v262.916h541.677v124.971h-541.677v342.634c-0 69.498 56.3359 125.834 125.834 125.834z" />
    <glyph glyph-name="colon" unicode=":" horiz-adv-x="339" 
d="M144.673 408.1v0c-79.9004 0 -144.673 64.7725 -144.673 144.673v0c0 79.9004 64.7725 144.673 144.673 144.673v0c79.9004 0 144.673 -64.7725 144.673 -144.673v0c0 -79.9004 -64.7725 -144.673 -144.673 -144.673zM144.673 -0v0
c-79.9004 0 -144.673 64.7725 -144.673 144.673v0c0 79.9004 64.7725 144.673 144.673 144.673v0c79.9004 0 144.673 -64.7725 144.673 -144.673v0c0 -79.9004 -64.7725 -144.673 -144.673 -144.673z" />
    <glyph glyph-name="semicolon" unicode=";" horiz-adv-x="398" 
d="M203.059 697.444c79.9004 0 144.673 -64.7725 144.673 -144.673v0c0 -79.9004 -64.7725 -144.673 -144.673 -144.673h-0.000976562c-79.9004 0 -144.672 64.7725 -144.672 144.673v0c0 79.9004 64.7715 144.673 144.672 144.673h0.000976562zM-0 -0l100.091 289.345
h247.641l-95.9209 -289.345h-251.811z" />
    <glyph glyph-name="equal" unicode="=" horiz-adv-x="925" 
d="M0 73.4287v294.69h874.999v-294.69h-874.999zM0 726.607h874.999v-294.69h-874.999v294.69z" />
    <glyph glyph-name="question" unicode="?" horiz-adv-x="825" 
d="M360.277 0c-58.0654 0 -105.137 47.0713 -105.137 105.137v0c0 58.0654 47.0713 105.137 105.137 105.137h8.01074c58.0654 0 105.137 -47.0713 105.137 -105.137v0c0 -58.0654 -47.0713 -105.137 -105.137 -105.137h-8.01074zM562.775 874.999h212.267v-0.00585938
v-294.679v-121.043v-30.1787c0 -64.7061 -52.4551 -117.161 -117.161 -117.161h-184.448v-70.9414h-218.281v70.9414v147.34h218.281h89.3428v146.065h-316.741v-67.9629h-246.034v170.066c-0 92.54 75.0186 167.559 167.559 167.559h32.5996v-0.00585938h362.617
v0.00585938z" />
    <glyph glyph-name="A" unicode="A" horiz-adv-x="1270" 
d="M506.329 385.588h149.729l-74.8643 150.177zM848.271 0.0107422l-67.5029 135.406h-399.15l-67.5 -135.404l-356.975 -0.0107422l436.193 874.999l18.7451 0.000976562l-0.00390625 0.0078125l133.419 -0.00390625l204.814 0.00585938l-0.00585938 -0.0117188
l18.7471 -0.000976562l436.193 -874.999z" />
    <glyph glyph-name="B" unicode="B" horiz-adv-x="1060" 
d="M722.396 604.538v6.02148c0 36.3008 -54.04 65.7285 -120.703 65.7285h-327.104v-127.947h344.607c56.9961 0 103.2 25.1602 103.2 56.1973zM722.396 303.07v6.02148c0 36.3008 -54.04 65.7285 -120.703 65.7285h-327.104v-127.947h344.607
c56.9961 0 103.2 25.1602 103.2 56.1973zM841.951 461.787c97.8584 -35.5771 167.757 -129.396 167.757 -239.55v-0.000976562c0 -122.738 -99.499 -222.237 -222.237 -222.237h-529.459c-0.0546875 0 -0.109375 0.00390625 -0.164062 0.00390625h-257.848v874.982h201.925
h178.79h350.53c124.124 0 224.746 -100.622 224.746 -224.746v0c0 -81.8604 -46.2598 -152.877 -114.04 -188.452z" />
    <glyph glyph-name="C" unicode="C" horiz-adv-x="1003" 
d="M330.766 266.039l622.667 -0.00195312v-266.039h-688.792v0.00976562h-57.8516c-114.207 0 -206.79 92.583 -206.79 206.79v461.41c0 114.207 92.583 206.79 206.79 206.79h123.977v-0.000976562h611.574v-266.039h-611.574v-342.919z" />
    <glyph glyph-name="D" unicode="D" horiz-adv-x="1155" 
d="M768.465 461.563c0 81.5146 -71.7178 147.876 -161.183 150.273v0.0683594h-277.745v-26.9697v-246.75v-26.9697h277.745v0.0683594c89.4648 2.39746 161.183 68.7588 161.183 150.279zM1105.08 448.725c0 -243.298 -209.959 -441.38 -471.888 -448.522v-0.202148
h-633.195v80.4775v736.501v80.4775h633.195v-0.202148c261.929 -7.14258 471.888 -205.225 471.888 -448.529z" />
    <glyph glyph-name="E" unicode="E" horiz-adv-x="1027" 
d="M963.027 639.243h-539.457v-83.8682h539.456v-235.751h-539.456v-83.8682h539.456v-235.751h-539.456v-0.00488281h-380.714v874.987h23.3994v0.00683594h896.771v-235.751z" />
    <glyph glyph-name="F" unicode="F" horiz-adv-x="964" 
d="M914.214 606.988h-568.309v-79.5342h568.309v-265.681h-568.309v-261.773h-345.905v872.669h120.784v0h793.43v-265.681z" />
    <glyph glyph-name="G" unicode="G" horiz-adv-x="1010" 
d="M298.318 633.797v-373.519h467.711v87.8652h-357.618v181.363h544.553v-529.506h-686.325c-147.271 0 -266.639 117.528 -266.639 262.483v348.873c0 144.955 119.367 262.483 266.639 262.483h693.646v-240.044h-661.967z" />
    <glyph glyph-name="H" unicode="H" horiz-adv-x="1065" 
d="M626.421 875l388.953 0.000976562v-875h-388.953v289.87h-237.467v-289.87h-388.954v875h388.954v-289.871h237.467v289.87z" />
    <glyph glyph-name="I" unicode="I" horiz-adv-x="413" 
d="M334.617 0h-334.617v875h334.617v-875z" />
    <glyph glyph-name="J" unicode="J" horiz-adv-x="994" 
d="M944.099 874.999v-580.309c0 -81.3604 -32.9561 -155.021 -86.3135 -208.378c-53.3076 -53.3086 -127.017 -86.3135 -208.377 -86.3135h-354.718c-81.4092 0 -155.069 33.0049 -208.378 86.3135c-53.3076 53.3574 -86.3125 127.018 -86.3125 208.378v80.3301h297.339
c11.6719 -55.417 60.8604 -97.0039 119.759 -97.0039h109.902c67.6289 0 122.408 54.7793 122.408 122.408v474.574h294.69z" />
    <glyph glyph-name="K" unicode="K" horiz-adv-x="1053" 
d="M646.27 562.653l356.975 -562.654h-323.821l-240.696 355.109l-8.18945 14.5654l-113.679 -102.35l-22.167 -19.96v-247.365h-294.69v874.999h147.37h147.32v-262.911v-57.5254l21.4307 19.2734l0.735352 0.686523l34.084 30.7002l171.352 154.284l24.6182 22.167
l103.625 93.3262h341.133l-345.89 -311.463z" />
    <glyph glyph-name="L" unicode="L" horiz-adv-x="983" 
d="M313.764 289.914h618.838v-230.788v-57.9541v-1.17188h-556.28h-376.321v875h313.764v-585.086z" />
    <glyph glyph-name="M" unicode="M" horiz-adv-x="1559" 
d="M1178.57 876.476h330.735v-874.999h-330.736v445.886l-423.905 -464.325l2.19824 -2.2959v-0.0986328h-2.20703v2.38477v0.0185547l-423.915 464.335v-445.886h-330.736v874.999h330.736l423.915 -461.098v-0.0185547z" />
    <glyph glyph-name="N" unicode="N" horiz-adv-x="1150" 
d="M756.877 874.999h328.53v-874.999h-280.812h-47.624h-0.09375v0.0986328l-426.111 445.816v-445.903h-330.766v874.988h330.766l426.111 -442.552v442.551z" />
    <glyph glyph-name="O" unicode="O" horiz-adv-x="1028" 
d="M727.908 342.075l0.000976562 190.86c0 44.9766 -36.46 81.4365 -81.4365 81.4365h-314.953c-44.9756 0 -81.4355 -36.46 -81.4355 -81.4355v-190.861c0 -44.9756 36.46 -81.4355 81.4355 -81.4355h314.953c44.9756 0 81.4355 36.46 81.4355 81.4355zM711.378 875.011
c147.247 0 266.614 -119.367 266.614 -266.614v-341.784c0 -147.247 -119.367 -266.614 -266.614 -266.614h-444.764c-147.247 0 -266.614 119.367 -266.614 266.614v341.784c0 147.247 119.367 266.614 266.614 266.614h444.764z" />
    <glyph glyph-name="P" unicode="P" horiz-adv-x="977" 
d="M655.8 546.949v101.616h-368.28v-101.616h368.28zM689.164 872.669c131.327 0 237.788 -106.46 237.788 -237.787v-100.443c0 -131.327 -106.461 -237.788 -237.788 -237.788h-0.000976562h-401.644v-296.65h-287.52v872.669h112.669v1.17383h576.494v-1.17383
h0.000976562z" />
    <glyph glyph-name="Q" unicode="Q" horiz-adv-x="1135" 
d="M249.425 344.985c0 -44.8232 36.3398 -81.2129 81.2129 -81.2129h212.428v176.402l182.896 -70.2676v165.457c0 44.8242 -36.3887 81.2129 -81.2129 81.2129h-314.11c-44.873 0 -81.2129 -36.3887 -81.2129 -81.2129v-190.379zM1084.52 232.149l-0.000976562 -232.149
l-194.368 74.6758c-27.3594 -25.3408 -60.0557 -44.999 -96.2158 -57.0918c-26.5312 -8.92578 -54.9258 -13.7324 -84.4492 -13.7324h-443.581c-146.831 0 -265.903 119.023 -265.903 265.903v340.839c0 146.88 119.072 265.903 265.903 265.903h443.581
c146.83 0 265.903 -119.023 265.903 -265.903v-336.517z" />
    <glyph glyph-name="R" unicode="R" horiz-adv-x="1123" 
d="M700.216 590.268v7.40234c0 28.457 -46.6426 51.5254 -104.179 51.5254h-301.358v-110.453h301.358c57.5361 0 104.179 23.0684 104.179 51.5254zM892.327 353.754l181.048 -353.756h-302.115l-150.347 293.768h-326.233v-293.768h-294.679v874.999h21.1943h273.484
h436.924c135.632 0 245.583 -109.951 245.583 -245.583v-90.0635c0 -74.1475 -32.9072 -140.567 -84.8594 -185.597z" />
    <glyph glyph-name="S" unicode="S" horiz-adv-x="1027" 
d="M976.612 725.521l-0.000976562 -149.465h-604.413l386.473 -140.188c129.126 -52.8174 217.94 -97.5928 217.94 -217.94v-57.3291l-0.469727 0.171875c0.280273 -3.73633 0.469727 -7.49805 0.469727 -11.3066v0c0 -82.5469 -66.918 -149.465 -149.465 -149.465h-677.685
c-82.5469 0 -149.465 66.918 -149.465 149.465v149.465h595.396l-377.456 136.94c-129.126 52.7686 -217.94 97.5439 -217.94 217.892v57.3291l0.727539 -0.266602c-0.47168 4.83691 -0.726562 9.7373 -0.726562 14.6973v0c0 82.5469 66.918 149.464 149.465 149.464
h677.685c82.5469 0 149.465 -66.917 149.465 -149.464z" />
    <glyph glyph-name="T" unicode="T" horiz-adv-x="924" 
d="M873.829 873.828v-309.642h-282.094v-564.187h-309.642v564.187h-282.094v309.642h282.094h309.642h282.094z" />
    <glyph glyph-name="U" unicode="U" horiz-adv-x="994" 
d="M649.405 874.999l294.678 0.000976562v-580.32v0c0 -162.746 -131.933 -294.679 -294.679 -294.679v0h-354.727v0c-162.746 0 -294.679 131.933 -294.679 294.679v0v580.319h294.679v-474.598c0 -67.6025 54.8027 -122.405 122.405 -122.405h109.917
c67.6025 0 122.405 54.8027 122.405 122.405v474.598z" />
    <glyph glyph-name="V" unicode="V" horiz-adv-x="1298" 
d="M891.134 874.999h356.972l-436.176 -874.999h-375.706l-436.225 874.999h356.973l67.5303 -135.403l124.713 -250.161l74.8379 -150.165l74.8867 150.165l124.713 250.161z" />
    <glyph glyph-name="W" unicode="W" horiz-adv-x="1653" 
d="M1245.56 874.999h356.974l-333.629 -874.999h-368.646l-98.9658 259.626l-99.0156 -259.626h-368.646l-333.63 874.999h356.974l160.955 -422.198l104.851 274.927l56.1523 147.271h244.668l56.1523 -147.271l104.803 -274.927z" />
    <glyph glyph-name="X" unicode="X" horiz-adv-x="1189" 
d="M1138.79 0h-390.51l-178.887 222.404l-178.887 -222.404h-390.511l378.737 468.06l-321.289 406.939h373.328l138.621 -171.314l138.621 171.314h373.327l-321.289 -406.938z" />
    <glyph glyph-name="Y" unicode="Y" horiz-adv-x="945" 
d="M645.943 874.999l249.179 -0.00195312v-359.278c0 -92.1084 -78.6455 -168.094 -180.344 -179.329l0.0302734 -0.0546875s-0.505859 -0.03125 -1.36133 -0.09375c-2.36035 -0.24707 -4.73047 -0.459961 -7.11426 -0.636719
c-18.3936 -1.90527 -60.335 -8.12891 -60.335 -25.2705c0 -0.290039 -0.0400391 -0.519531 -0.0556641 -0.785156v-309.55h-396.714v310.336c0 17.0947 -41.7051 23.3301 -60.1768 25.2539c-2.52832 0.18457 -5.04297 0.40918 -7.54492 0.672852
c-0.682617 0.0488281 -1.08887 0.0742188 -1.08887 0.0742188l0.0244141 0.0439453c-101.71 11.2012 -180.443 87.2051 -180.443 179.341v359.278h249.229h45.4619v-294.451h305.742v294.451h45.5107z" />
    <glyph glyph-name="Z" unicode="Z" horiz-adv-x="1239" 
d="M921.245 580.357l-259.136 -285.667h484.707v-294.69h-752.032h-394.784l267.325 294.69l259.185 285.667h-455.302v294.642h722.578h394.735z" />
    <glyph glyph-name="a" unicode="a" horiz-adv-x="904" 
d="M478.349 263.902l-51.2383 102.786l-51.2373 -102.786h102.476zM563.702 92.6826l-273.186 -0.000976562l-46.1973 -92.6738l-244.321 -0.00878906l298.539 598.864h12.8281v0.00976562l91.3135 -0.00488281l140.175 0.00488281l-0.00488281 -0.00878906h12.833
l298.539 -598.864l-244.321 0.00878906z" />
    <glyph glyph-name="b" unicode="b" horiz-adv-x="741" 
d="M494.421 211.546c0 24.8486 -36.9854 44.9863 -82.6123 44.9863h-223.877v-87.5684h235.856c39.0088 0 70.6328 17.2188 70.6328 38.4609v4.12109zM494.421 417.88c0 24.8438 -36.9854 44.9824 -82.6123 44.9824h-223.877v-87.5684h235.856
c39.0088 0 70.6328 17.2227 70.6328 38.4648v4.12109zM691.06 152.104c0 -84.0039 -68.0957 -152.104 -152.1 -152.104h-362.372c-0.0371094 0 -0.0742188 0.00488281 -0.111328 0.00488281h-176.478v598.851h138.203h122.362h239.912
c84.9512 0 153.82 -68.8643 153.82 -153.819c0 -56.0273 -31.6611 -104.634 -78.0537 -128.981c66.9805 -24.3477 114.816 -88.5615 114.816 -163.951z" />
    <glyph glyph-name="c" unicode="c" horiz-adv-x="703" 
d="M652.548 182.08l-0.000976562 -182.08h-471.424v0.00488281h-39.5928c-78.165 0 -141.53 63.3691 -141.53 141.53v315.799c0 78.165 63.3652 141.53 141.53 141.53h84.8535h418.571v-182.084h-418.571v-234.7h426.164z" />
    <glyph glyph-name="d" unicode="d" horiz-adv-x="618" 
d="M388.441 307.997c0 61.2158 -48.7266 111.054 -109.511 112.854v0.0507812h-96.957v-20.2539v-185.306v-20.2539h96.957v0.0507812c60.7842 1.80078 109.511 51.6367 109.511 112.857zM567.56 299.432c0 -162.351 -129.227 -294.528 -290.439 -299.295v-0.134766h-277.12
v53.7021v491.46v53.7021h277.12v-0.134766c161.213 -4.7666 290.439 -136.945 290.439 -299.3z" />
    <glyph glyph-name="e" unicode="e" horiz-adv-x="680" 
d="M260.57 437.507l0.000976562 -57.4014h369.209v-161.348h-369.209v-57.4014h369.209v-161.353h-369.209v-0.00488281h-260.57v598.855h16.0166v0.00488281h613.762v-161.353h-369.209z" />
    <glyph glyph-name="f" unicode="f" horiz-adv-x="676" 
d="M236.742 415.435v-54.4355h388.961v-181.838h-388.961v-179.16h-236.742v597.268h82.667h543.036v-181.834h-388.961z" />
    <glyph glyph-name="g" unicode="g" horiz-adv-x="707" 
d="M204.176 178.14h320.105v60.1348h-244.758v124.131h372.699v-362.405h-469.73c-100.795 -0 -182.492 80.4395 -182.492 179.647v238.775c0 99.208 81.6973 179.647 182.492 179.647h474.743v-164.29h-453.06v-255.641z" />
    <glyph glyph-name="h" unicode="h" horiz-adv-x="745" 
d="M694.939 598.864v-598.864h-266.209v198.394h-162.522v-198.394h-266.209v598.864h266.209v-198.394h162.522v198.394h266.209z" />
    <glyph glyph-name="i" unicode="i" horiz-adv-x="279" 
d="M0 0v598.864h229.015v-598.864h-229.015z" />
    <glyph glyph-name="j" unicode="j" horiz-adv-x="696" 
d="M646.157 201.693c0 -55.6836 -22.5576 -106.102 -59.0742 -142.622c-36.4883 -36.4834 -86.9375 -59.0713 -142.621 -59.0713h-242.771c-55.7207 -0 -106.133 22.5879 -142.621 59.0713c-36.4834 36.5205 -59.0713 86.9365 -59.0713 142.62v54.9785h203.503
c7.9873 -37.9268 41.6543 -66.3906 81.9668 -66.3906h75.2188c46.2861 0 83.7773 37.4912 83.7773 83.7773v324.808h201.693v-397.171z" />
    <glyph glyph-name="k" unicode="k" horiz-adv-x="737" 
d="M686.637 0l-221.632 0.00195312l-164.735 243.045l-5.60156 9.96875l-77.8037 -70.0527l-15.1719 -13.6592v-169.303h-201.693v598.864h100.86h100.833v-179.94v-39.375l14.666 13.1943l0.505859 0.46875l23.3262 21.0098l117.276 105.595l16.8477 15.1719
l70.9248 63.875h233.476l-236.733 -213.17l0.338867 -0.603516z" />
    <glyph glyph-name="l" unicode="l" horiz-adv-x="688" 
d="M638.29 0.802734h-380.729v-0.802734h-257.562v598.864h214.744v-400.443h423.547v-197.618z" />
    <glyph glyph-name="m" unicode="m" horiz-adv-x="1083" 
d="M516.494 0.00976562v0.00976562l-290.134 305.166v-305.171h-226.36v598.864h226.36l290.134 -315.581v-0.0136719l290.139 315.581h226.36v-598.864h-226.36v305.171l-290.129 -305.157z" />
    <glyph glyph-name="n" unicode="n" horiz-adv-x="793" 
d="M742.873 598.864v-598.865h-192.192h-32.5986h-0.0605469v0.0654297l-291.638 305.124v-305.18h-226.384v598.855h226.384l291.638 -302.888v302.888h224.852z" />
    <glyph glyph-name="o" unicode="o" horiz-adv-x="719" 
d="M498.194 364.753c0 30.7793 -24.9551 55.7344 -55.7393 55.7344h-215.556c-30.7842 0 -55.7393 -24.9551 -55.7393 -55.7344v-130.633c0 -30.7793 24.9551 -55.7344 55.7393 -55.7344h215.556c30.7842 0 55.7393 24.9551 55.7393 55.7344v130.633zM669.354 416.399
v-233.926c0 -100.776 -81.6973 -182.474 -182.474 -182.474h-304.405c-100.776 -0 -182.474 81.6973 -182.474 182.474v233.926c0 100.776 81.6973 182.474 182.474 182.474h304.405c100.776 0 182.474 -81.6973 182.474 -182.474z" />
    <glyph glyph-name="p" unicode="p" horiz-adv-x="684" 
d="M448.841 443.889h-252.058v-69.5469h252.058v69.5469zM634.421 434.522l-0.000976562 -68.7451c0 -89.8838 -72.8604 -162.744 -162.744 -162.744h-274.893v-203.034h-196.782v597.268h77.1123v0.807617h394.563v-0.807617c89.8838 0 162.744 -72.8604 162.744 -162.744z
" />
    <glyph glyph-name="q" unicode="q" horiz-adv-x="792" 
d="M226.295 180.529h145.388v120.733l125.18 -48.0908v113.243c0 30.6777 -24.9092 55.582 -55.5869 55.582h-214.98c-30.7148 0 -55.5869 -24.9043 -55.5869 -55.582v-130.299c0 -30.6826 24.8721 -55.5869 55.5869 -55.5869zM742.261 -0l-133.028 51.1074
c-18.7227 -17.3438 -41.1016 -30.7979 -65.8525 -39.0732c-18.1562 -6.10742 -37.5928 -9.39844 -57.7959 -9.39844h-303.598c-100.494 0 -181.987 81.4609 -181.987 181.992v233.275c0 100.526 81.4932 181.987 181.987 181.987h303.598
c100.494 0 181.987 -81.4609 181.987 -181.987v-230.319l74.6895 -28.6963v-158.888z" />
    <glyph glyph-name="r" unicode="r" horiz-adv-x="785" 
d="M479.24 409.058c0 19.4736 -31.9219 35.2627 -71.3018 35.2627h-206.255v-75.5938h206.255c39.3799 0 71.3018 15.7891 71.3018 35.2627v5.06836zM734.636 0l-206.771 0.000976562l-102.902 201.062h-223.278v-201.062h-201.684v598.864h14.5078h187.176h299.035
c92.8311 0 168.082 -75.251 168.082 -168.082v-61.6436c0 -50.7461 -22.5186 -96.2061 -58.0791 -127.022z" />
    <glyph glyph-name="s" unicode="s" horiz-adv-x="718" 
d="M668.406 394.262h-413.667l264.506 -95.9453c88.3809 -36.1494 149.161 -66.7949 149.161 -149.16v-39.2402l-0.31543 0.121094c0.185547 -2.55762 0.31543 -5.13379 0.31543 -7.74219c0 -56.4961 -45.7988 -102.295 -102.29 -102.295h-463.822
c-56.4961 0 -102.295 45.7988 -102.295 102.295v102.299h407.498l-258.338 93.7227c-88.376 36.1172 -149.16 66.7627 -149.16 149.128v39.2402l0.49707 -0.185547c-0.320312 3.31348 -0.49707 6.66406 -0.49707 10.0615c0 56.4961 45.7988 102.295 102.295 102.295h463.822
c56.4912 0 102.29 -45.7988 102.29 -102.295v-102.299z" />
    <glyph glyph-name="t" unicode="t" horiz-adv-x="648" 
d="M598.062 386.14h-193.069v-386.14h-211.922v386.14h-193.069v211.922h193.069h211.922h193.069v-211.922z" />
    <glyph glyph-name="u" unicode="u" horiz-adv-x="696" 
d="M646.147 598.864l-0.00195312 -397.181c0 -111.387 -90.2969 -201.684 -201.684 -201.684h-242.78c-111.387 -0 -201.684 90.2969 -201.684 201.684v397.181h201.684v-324.821c0 -46.2715 37.5098 -83.7764 83.7773 -83.7764h75.2275
c46.2676 0 83.7773 37.5049 83.7773 83.7764v324.821h201.684z" />
    <glyph glyph-name="v" unicode="v" horiz-adv-x="904" 
d="M854.227 598.864l-298.528 -598.864h-257.14l-298.558 598.864h244.316l46.2207 -92.6738l85.3545 -171.215l51.2188 -102.772l51.2559 102.772l85.3545 171.215l46.1836 92.6738h244.321z" />
    <glyph glyph-name="w" unicode="w" horiz-adv-x="1147" 
d="M1096.8 598.864l-228.341 -598.864h-252.304l-67.7373 177.693l-67.7646 -177.693h-252.309l-228.342 598.864h244.316l110.161 -288.96l71.7607 188.164l38.4326 100.795h167.455l38.4326 -100.795l71.7285 -188.164l110.193 288.96h244.316z" />
    <glyph glyph-name="x" unicode="x" horiz-adv-x="829" 
d="M512.136 0l-122.431 152.219l-122.433 -152.219h-267.271l259.215 320.348l-219.896 278.517h255.511l94.873 -117.248l94.8779 117.248h255.511l-219.896 -278.517l259.215 -320.348h-267.276z" />
    <glyph glyph-name="y" unicode="y" horiz-adv-x="663" 
d="M612.639 598.864l0.00292969 -245.895c0 -63.0449 -53.8271 -115.049 -123.43 -122.739l0.0185547 -0.0371094s-0.34375 -0.0234375 -0.933594 -0.0654297c-1.61523 -0.166992 -3.23535 -0.31543 -4.86914 -0.436523c-12.5869 -1.30371 -41.292 -5.55957 -41.292 -17.292
c0 -0.199219 -0.0283203 -0.357422 -0.0419922 -0.538086v-211.861h-271.519v212.4c0 11.7002 -28.543 15.9658 -41.1855 17.2842c-1.73145 0.125 -3.44824 0.27832 -5.16113 0.458984c-0.46875 0.0322266 -0.74707 0.0507812 -0.74707 0.0507812l0.0185547 0.0322266
c-69.6123 7.66211 -123.5 59.6846 -123.5 122.743v245.895h170.574h31.1182v-201.525h209.253v201.525h31.1465h170.547z" />
    <glyph glyph-name="z" unicode="z" horiz-adv-x="863" 
d="M453.157 201.693h331.745v-201.693h-514.707h-270.195l182.961 201.693l177.393 195.516h-311.617v201.656h494.546h270.163l-182.929 -201.656z" />
    <glyph glyph-name="nonbreakingspace" unicode="&#xa0;" 
 />
  </font>
</defs>
</svg>
