<svg width="32" height="32" viewBox="0 0 32 32" fill="none" xmlns="http://www.w3.org/2000/svg">
<path d="M31.2099 9.71828C31.1928 8.43074 30.9518 7.156 30.4976 5.95108C30.1038 4.93474 29.5024 4.01172 28.7316 3.24099C27.9609 2.47027 27.0379 1.86879 26.0215 1.47498C24.8321 1.02849 23.5756 0.787061 22.3053 0.760981C20.6699 0.687881 20.1514 0.66748 16 0.66748C11.8486 0.66748 11.3165 0.667481 9.69305 0.760981C8.42342 0.787252 7.16744 1.02868 5.97855 1.47498C4.96205 1.86851 4.03888 2.4699 3.26812 3.24066C2.49736 4.01142 1.89598 4.93458 1.50245 5.95108C1.05506 7.13961 0.814156 8.39587 0.790146 9.66558C0.717046 11.3027 0.694946 11.8212 0.694946 15.9726C0.694946 20.124 0.694946 20.6544 0.790146 22.2796C0.815646 23.5512 1.05535 24.8058 1.50245 25.9975C1.89664 27.0137 2.49847 27.9365 3.26949 28.7069C4.04051 29.4773 4.96376 30.0785 5.98025 30.4719C7.16588 30.9363 8.42208 31.195 9.69475 31.2369C11.3318 31.31 11.8503 31.3321 16.0017 31.3321C20.1531 31.3321 20.6852 31.3321 22.3087 31.2369C23.5789 31.2119 24.8356 30.971 26.0249 30.5246C27.041 30.1303 27.9638 29.5287 28.7345 28.758C29.5051 27.9873 30.1068 27.0646 30.501 26.0485C30.9481 24.8585 31.1878 23.6039 31.2133 22.3306C31.2864 20.6952 31.3085 20.1767 31.3085 16.0236C31.3051 11.8722 31.3051 11.3452 31.2099 9.71828ZM15.9898 23.8232C11.648 23.8232 8.13075 20.3059 8.13075 15.9641C8.13075 11.6223 11.648 8.10498 15.9898 8.10498C18.0742 8.10498 20.0732 8.93299 21.5471 10.4069C23.0209 11.8807 23.8489 13.8797 23.8489 15.9641C23.8489 18.0484 23.0209 20.0474 21.5471 21.5213C20.0732 22.9952 18.0742 23.8232 15.9898 23.8232ZM24.1617 9.64688C23.921 9.6471 23.6826 9.59986 23.4602 9.50784C23.2377 9.41582 23.0356 9.28084 22.8654 9.11062C22.6952 8.94041 22.5602 8.73829 22.4682 8.51585C22.3762 8.29341 22.3289 8.055 22.3291 7.81428C22.3291 7.57373 22.3765 7.33554 22.4686 7.1133C22.5606 6.89106 22.6956 6.68913 22.8657 6.51904C23.0357 6.34894 23.2377 6.21402 23.4599 6.12196C23.6822 6.02991 23.9203 5.98253 24.1609 5.98253C24.4014 5.98253 24.6396 6.02991 24.8619 6.12196C25.0841 6.21402 25.286 6.34894 25.4561 6.51904C25.6262 6.68913 25.7612 6.89106 25.8532 7.1133C25.9453 7.33554 25.9926 7.57373 25.9926 7.81428C25.9926 8.82748 25.1732 9.64688 24.1617 9.64688Z" fill="url(#paint0_radial_729_2277)"/>
<path d="M31.2099 9.71828C31.1928 8.43074 30.9518 7.156 30.4976 5.95108C30.1038 4.93474 29.5024 4.01172 28.7316 3.24099C27.9609 2.47027 27.0379 1.86879 26.0215 1.47498C24.8321 1.02849 23.5756 0.787061 22.3053 0.760981C20.6699 0.687881 20.1514 0.66748 16 0.66748C11.8486 0.66748 11.3165 0.667481 9.69305 0.760981C8.42342 0.787252 7.16744 1.02868 5.97855 1.47498C4.96205 1.86851 4.03888 2.4699 3.26812 3.24066C2.49736 4.01142 1.89598 4.93458 1.50245 5.95108C1.05506 7.13961 0.814156 8.39587 0.790146 9.66558C0.717046 11.3027 0.694946 11.8212 0.694946 15.9726C0.694946 20.124 0.694946 20.6544 0.790146 22.2796C0.815646 23.5512 1.05535 24.8058 1.50245 25.9975C1.89664 27.0137 2.49847 27.9365 3.26949 28.7069C4.04051 29.4773 4.96376 30.0785 5.98025 30.4719C7.16588 30.9363 8.42208 31.195 9.69475 31.2369C11.3318 31.31 11.8503 31.3321 16.0017 31.3321C20.1531 31.3321 20.6852 31.3321 22.3087 31.2369C23.5789 31.2119 24.8356 30.971 26.0249 30.5246C27.041 30.1303 27.9638 29.5287 28.7345 28.758C29.5051 27.9873 30.1068 27.0646 30.501 26.0485C30.9481 24.8585 31.1878 23.6039 31.2133 22.3306C31.2864 20.6952 31.3085 20.1767 31.3085 16.0236C31.3051 11.8722 31.3051 11.3452 31.2099 9.71828ZM15.9898 23.8232C11.648 23.8232 8.13075 20.3059 8.13075 15.9641C8.13075 11.6223 11.648 8.10498 15.9898 8.10498C18.0742 8.10498 20.0732 8.93299 21.5471 10.4069C23.0209 11.8807 23.8489 13.8797 23.8489 15.9641C23.8489 18.0484 23.0209 20.0474 21.5471 21.5213C20.0732 22.9952 18.0742 23.8232 15.9898 23.8232ZM24.1617 9.64688C23.921 9.6471 23.6826 9.59986 23.4602 9.50784C23.2377 9.41582 23.0356 9.28084 22.8654 9.11062C22.6952 8.94041 22.5602 8.73829 22.4682 8.51585C22.3762 8.29341 22.3289 8.055 22.3291 7.81428C22.3291 7.57373 22.3765 7.33554 22.4686 7.1133C22.5606 6.89106 22.6956 6.68913 22.8657 6.51904C23.0357 6.34894 23.2377 6.21402 23.4599 6.12196C23.6822 6.02991 23.9203 5.98253 24.1609 5.98253C24.4014 5.98253 24.6396 6.02991 24.8619 6.12196C25.0841 6.21402 25.286 6.34894 25.4561 6.51904C25.6262 6.68913 25.7612 6.89106 25.8532 7.1133C25.9453 7.33554 25.9926 7.57373 25.9926 7.81428C25.9926 8.82748 25.1732 9.64688 24.1617 9.64688Z" fill="url(#paint1_radial_729_2277)"/>
<path d="M15.9898 21.0692C18.8093 21.0692 21.0949 18.7836 21.0949 15.9641C21.0949 13.1446 18.8093 10.859 15.9898 10.859C13.1704 10.859 10.8847 13.1446 10.8847 15.9641C10.8847 18.7836 13.1704 21.0692 15.9898 21.0692Z" fill="url(#paint2_radial_729_2277)"/>
<path d="M15.9898 21.0692C18.8093 21.0692 21.0949 18.7836 21.0949 15.9641C21.0949 13.1446 18.8093 10.859 15.9898 10.859C13.1704 10.859 10.8847 13.1446 10.8847 15.9641C10.8847 18.7836 13.1704 21.0692 15.9898 21.0692Z" fill="url(#paint3_radial_729_2277)"/>
<defs>
<radialGradient id="paint0_radial_729_2277" cx="0" cy="0" r="1" gradientUnits="userSpaceOnUse" gradientTransform="translate(26.5634 35.4718) rotate(-115.739) scale(41.8037 62.1138)">
<stop offset="0.24392" stop-color="#FF1B90"/>
<stop offset="0.436673" stop-color="#F80261"/>
<stop offset="0.688476" stop-color="#ED00C0"/>
<stop offset="0.776787" stop-color="#C500E9"/>
<stop offset="0.893155" stop-color="#7017FF"/>
</radialGradient>
<radialGradient id="paint1_radial_729_2277" cx="0" cy="0" r="1" gradientUnits="userSpaceOnUse" gradientTransform="translate(11.7924 30.2741) rotate(-57.4828) scale(18.1101 18.8239)">
<stop stop-color="#FFD600"/>
<stop offset="0.484375" stop-color="#FF6930"/>
<stop offset="0.734375" stop-color="#FE3B36"/>
<stop offset="1" stop-color="#FE3B36" stop-opacity="0"/>
</radialGradient>
<radialGradient id="paint2_radial_729_2277" cx="0" cy="0" r="1" gradientUnits="userSpaceOnUse" gradientTransform="translate(26.5634 35.4718) rotate(-115.739) scale(41.8037 62.1138)">
<stop offset="0.24392" stop-color="#FF1B90"/>
<stop offset="0.436673" stop-color="#F80261"/>
<stop offset="0.688476" stop-color="#ED00C0"/>
<stop offset="0.776787" stop-color="#C500E9"/>
<stop offset="0.893155" stop-color="#7017FF"/>
</radialGradient>
<radialGradient id="paint3_radial_729_2277" cx="0" cy="0" r="1" gradientUnits="userSpaceOnUse" gradientTransform="translate(11.7924 30.2741) rotate(-57.4828) scale(18.1101 18.8239)">
<stop stop-color="#FFD600"/>
<stop offset="0.484375" stop-color="#FF6930"/>
<stop offset="0.734375" stop-color="#FE3B36"/>
<stop offset="1" stop-color="#FE3B36" stop-opacity="0"/>
</radialGradient>
</defs>
</svg>
