<svg width="174" height="16" viewBox="0 0 174 16" fill="none" xmlns="http://www.w3.org/2000/svg">
<g clip-path="url(#clip0_515_3107)">
<path d="M90 13H87.5398L81.3753 5.28761V13H79V2H81.5026L87.6247 9.68133V2H90V13Z" fill="white"/>
<path d="M95 13H93V2H95V13Z" fill="white"/>
<path d="M108 3.97884H100.695V6.78334H107.571V8.7465H100.695V13H98V2H108V3.97884Z" fill="white"/>
<path d="M119 4.0099H115.277V13H112.738V4.0099H109V2H119V4.0099Z" fill="white"/>
<path d="M130 13H127.052L126.158 10.9277H120.767L119.874 13H117L122.078 2H124.922L130 13ZM125.309 8.9802L123.478 4.67996L121.616 8.9802H125.309Z" fill="white"/>
<path d="M131 2H137.257C137.621 2 137.922 2.01051 138.158 2.03121C138.395 2.05192 138.7 2.13505 139.074 2.28045C139.447 2.4155 139.743 2.62332 139.962 2.90378C140.326 3.37119 140.508 3.96833 140.508 4.69549C140.508 5.85886 139.975 6.63794 138.91 7.03258C140.294 7.39616 140.991 8.32064 141 9.80588C141 10.5746 140.859 11.1926 140.576 11.66C140.394 11.9717 140.185 12.2261 139.948 12.4234C139.72 12.6209 139.452 12.7611 139.142 12.8441C138.842 12.9169 138.596 12.9636 138.404 12.9843C138.213 12.9948 137.954 13 137.626 13H131V2ZM133.391 6.31592H137.025C137.799 6.31592 138.186 5.91078 138.186 5.10064C138.177 4.30085 137.794 3.90088 137.038 3.90088H133.391V6.31592ZM133.391 11.0679H137.161C138.118 11.0679 138.596 10.5694 138.596 9.57217C138.596 8.6789 138.167 8.23234 137.311 8.23234H133.391V11.0679Z" fill="white"/>
<path d="M151 13H143V2H145.489V10.9744H151V13Z" fill="white"/>
<path d="M162 13H152V2H161.705V3.97884H154.611V6.45615H161.469V8.4193H154.611V11.0368H162V13Z" fill="white"/>
<path d="M163 10.0814L165.352 9.48C165.858 10.5555 167.022 11.0934 168.843 11.0934C169.048 11.0934 169.257 11.0835 169.471 11.064C169.686 11.0346 169.958 10.9809 170.29 10.9026C170.621 10.8245 170.888 10.6875 171.093 10.492C171.307 10.2866 171.414 10.0325 171.414 9.72938C171.414 9.5925 171.39 9.47025 171.341 9.36262C171.302 9.25513 171.22 9.16225 171.093 9.084C170.976 9.00575 170.864 8.94225 170.757 8.89338C170.66 8.8445 170.504 8.79549 170.29 8.74662C170.075 8.69775 169.9 8.66349 169.764 8.644C169.637 8.61462 169.432 8.58051 169.15 8.54138C168.332 8.41425 167.762 8.32625 167.441 8.27738C167.12 8.21862 166.764 8.14051 166.374 8.04262C165.985 7.94487 165.659 7.83251 165.396 7.70538C164.315 7.19687 163.774 6.37549 163.774 5.24138C163.774 4.508 164.003 3.892 164.461 3.39338C164.918 2.88487 165.498 2.528 166.199 2.32262C166.9 2.10749 167.699 2 168.595 2C171.273 2 173.075 2.82625 174 4.47862L171.56 5.09462C171.122 4.26349 170.109 3.848 168.522 3.848C167.022 3.848 166.272 4.24887 166.272 5.05062C166.272 5.47113 166.545 5.76938 167.09 5.94538C167.324 6.01375 168.429 6.224 170.406 6.576C170.767 6.64451 171.064 6.70312 171.297 6.752C171.531 6.80087 171.828 6.89862 172.189 7.04538C172.559 7.192 172.851 7.36312 173.065 7.55862C173.279 7.75425 173.469 8.02313 173.635 8.36538C173.8 8.69775 173.883 9.084 173.883 9.524C173.883 11.8414 172.135 13 168.639 13C167.178 13 165.999 12.7605 165.104 12.2814C164.217 11.8023 163.516 11.0689 163 10.0814Z" fill="white"/>
<path d="M1.14489 13V3.54545H4.33949C5.0812 3.54545 5.6875 3.67933 6.15838 3.94709C6.63234 4.21177 6.98319 4.57031 7.21094 5.02273C7.43868 5.47514 7.55256 5.97988 7.55256 6.53693C7.55256 7.09399 7.43868 7.60026 7.21094 8.05575C6.98627 8.51125 6.63849 8.87441 6.16761 9.14524C5.69673 9.413 5.09351 9.54688 4.35795 9.54688H2.06818V8.53125H4.32102C4.82884 8.53125 5.23662 8.44354 5.54439 8.26811C5.85215 8.09268 6.07528 7.85571 6.21378 7.55717C6.35535 7.25556 6.42614 6.91548 6.42614 6.53693C6.42614 6.15838 6.35535 5.81984 6.21378 5.52131C6.07528 5.22277 5.85062 4.98887 5.53977 4.8196C5.22893 4.64725 4.81652 4.56108 4.30256 4.56108H2.28977V13H1.14489ZM11.7936 13.1477C11.1535 13.1477 10.5918 12.9954 10.1086 12.6907C9.62849 12.386 9.25302 11.9598 8.98219 11.4119C8.71443 10.8641 8.58055 10.224 8.58055 9.49148C8.58055 8.75284 8.71443 8.10807 8.98219 7.55717C9.25302 7.00627 9.62849 6.57848 10.1086 6.27379C10.5918 5.96911 11.1535 5.81676 11.7936 5.81676C12.4338 5.81676 12.9939 5.96911 13.474 6.27379C13.9572 6.57848 14.3327 7.00627 14.6004 7.55717C14.8713 8.10807 15.0067 8.75284 15.0067 9.49148C15.0067 10.224 14.8713 10.8641 14.6004 11.4119C14.3327 11.9598 13.9572 12.386 13.474 12.6907C12.9939 12.9954 12.4338 13.1477 11.7936 13.1477ZM11.7936 12.169C12.2799 12.169 12.68 12.0444 12.9939 11.7951C13.3078 11.5458 13.5402 11.218 13.691 10.8118C13.8418 10.4055 13.9172 9.96544 13.9172 9.49148C13.9172 9.01752 13.8418 8.57588 13.691 8.16655C13.5402 7.75722 13.3078 7.42637 12.9939 7.17401C12.68 6.92164 12.2799 6.79545 11.7936 6.79545C11.3074 6.79545 10.9073 6.92164 10.5933 7.17401C10.2794 7.42637 10.0471 7.75722 9.89625 8.16655C9.74544 8.57588 9.67004 9.01752 9.67004 9.49148C9.67004 9.96544 9.74544 10.4055 9.89625 10.8118C10.0471 11.218 10.2794 11.5458 10.5933 11.7951C10.9073 12.0444 11.3074 12.169 11.7936 12.169ZM17.7751 13L15.6146 5.90909H16.7595L18.2921 11.3381H18.366L19.8802 5.90909H21.0436L22.5393 11.3196H22.6132L24.1458 5.90909H25.2907L23.1302 13H22.0592L20.5081 7.55256H20.3973L18.8461 13H17.7751ZM29.2029 13.1477C28.5196 13.1477 27.9303 12.9969 27.4348 12.6953C26.9423 12.3906 26.5622 11.9659 26.2945 11.4212C26.0298 10.8733 25.8975 10.2363 25.8975 9.50994C25.8975 8.78362 26.0298 8.14347 26.2945 7.58949C26.5622 7.03243 26.9346 6.59848 27.4117 6.28764C27.8918 5.97372 28.4519 5.81676 29.0921 5.81676C29.4614 5.81676 29.8261 5.87831 30.1862 6.00142C30.5463 6.12453 30.874 6.32457 31.1695 6.60156C31.4649 6.87547 31.7004 7.23864 31.8758 7.69105C32.0512 8.14347 32.1389 8.70052 32.1389 9.36222V9.82386H26.673V8.8821H31.031C31.031 8.48201 30.951 8.125 30.7909 7.81108C30.634 7.49716 30.4093 7.24941 30.1169 7.06783C29.8276 6.88625 29.486 6.79545 29.0921 6.79545C28.6581 6.79545 28.2826 6.90317 27.9656 7.11861C27.6517 7.33097 27.4101 7.60795 27.2409 7.94957C27.0716 8.29119 26.987 8.65743 26.987 9.0483V9.67614C26.987 10.2116 27.0793 10.6656 27.2639 11.038C27.4517 11.4073 27.7117 11.6889 28.0441 11.8828C28.3765 12.0736 28.7628 12.169 29.2029 12.169C29.4891 12.169 29.7476 12.129 29.9784 12.049C30.2123 11.9659 30.4139 11.8428 30.5832 11.6797C30.7525 11.5135 30.8833 11.3073 30.9756 11.0611L32.0281 11.3565C31.9174 11.7135 31.7312 12.0275 31.4696 12.2983C31.208 12.5661 30.8848 12.7753 30.5001 12.9261C30.1154 13.0739 29.683 13.1477 29.2029 13.1477ZM33.5363 13V5.90909H34.5888V6.98011H34.6627C34.7919 6.62926 35.0258 6.34458 35.3644 6.12606C35.7029 5.90755 36.0846 5.79829 36.5093 5.79829C36.5893 5.79829 36.6893 5.79983 36.8093 5.80291C36.9294 5.80599 37.0202 5.81061 37.0817 5.81676V6.92472C37.0448 6.91548 36.9601 6.90163 36.8278 6.88317C36.6985 6.86162 36.5616 6.85085 36.4169 6.85085C36.0722 6.85085 35.7645 6.92318 35.4936 7.06783C35.2259 7.2094 35.0135 7.40637 34.8566 7.65874C34.7027 7.90803 34.6257 8.19271 34.6257 8.51278V13H33.5363ZM40.8704 13.1477C40.1871 13.1477 39.5978 12.9969 39.1023 12.6953C38.6098 12.3906 38.2297 11.9659 37.962 11.4212C37.6973 10.8733 37.565 10.2363 37.565 9.50994C37.565 8.78362 37.6973 8.14347 37.962 7.58949C38.2297 7.03243 38.6021 6.59848 39.0792 6.28764C39.5593 5.97372 40.1194 5.81676 40.7596 5.81676C41.1289 5.81676 41.4936 5.87831 41.8537 6.00142C42.2138 6.12453 42.5415 6.32457 42.837 6.60156C43.1324 6.87547 43.3679 7.23864 43.5433 7.69105C43.7187 8.14347 43.8064 8.70052 43.8064 9.36222V9.82386H38.3405V8.8821H42.6985C42.6985 8.48201 42.6185 8.125 42.4584 7.81108C42.3015 7.49716 42.0768 7.24941 41.7844 7.06783C41.4951 6.88625 41.1535 6.79545 40.7596 6.79545C40.3256 6.79545 39.9501 6.90317 39.6332 7.11861C39.3192 7.33097 39.0776 7.60795 38.9084 7.94957C38.7391 8.29119 38.6545 8.65743 38.6545 9.0483V9.67614C38.6545 10.2116 38.7468 10.6656 38.9314 11.038C39.1192 11.4073 39.3792 11.6889 39.7116 11.8828C40.044 12.0736 40.4303 12.169 40.8704 12.169C41.1566 12.169 41.4151 12.129 41.6459 12.049C41.8798 11.9659 42.0814 11.8428 42.2507 11.6797C42.42 11.5135 42.5508 11.3073 42.6431 11.0611L43.6957 11.3565C43.5849 11.7135 43.3987 12.0275 43.1371 12.2983C42.8755 12.5661 42.5523 12.7753 42.1676 12.9261C41.7829 13.0739 41.3505 13.1477 40.8704 13.1477ZM47.8813 13.1477C47.2904 13.1477 46.7687 12.9985 46.3163 12.6999C45.8639 12.3983 45.51 11.9736 45.2545 11.4258C44.9991 10.8749 44.8714 10.224 44.8714 9.47301C44.8714 8.72822 44.9991 8.08191 45.2545 7.53409C45.51 6.98627 45.8655 6.56309 46.3209 6.26456C46.7764 5.96603 47.3027 5.81676 47.8998 5.81676C48.3614 5.81676 48.7261 5.8937 48.9939 6.04759C49.2647 6.19839 49.4709 6.37074 49.6125 6.56463C49.7571 6.75544 49.8695 6.91241 49.9495 7.03551H50.0418V3.54545H51.1313V13H50.0788V11.9105H49.9495C49.8695 12.0398 49.7556 12.2029 49.6079 12.3999C49.4602 12.5937 49.2493 12.7676 48.9754 12.9215C48.7015 13.0723 48.3368 13.1477 47.8813 13.1477ZM48.029 12.169C48.4661 12.169 48.8354 12.0552 49.137 11.8274C49.4386 11.5966 49.6679 11.2781 49.8249 10.8718C49.9818 10.4625 50.0603 9.99006 50.0603 9.45455C50.0603 8.92519 49.9834 8.462 49.8295 8.06499C49.6756 7.66489 49.4478 7.35405 49.1462 7.13246C48.8446 6.90779 48.4722 6.79545 48.029 6.79545C47.5674 6.79545 47.1827 6.91394 46.8749 7.15092C46.5702 7.38482 46.341 7.70336 46.1871 8.10653C46.0363 8.50663 45.9609 8.95597 45.9609 9.45455C45.9609 9.95928 46.0378 10.4179 46.1917 10.8303C46.3486 11.2396 46.5795 11.5658 46.8842 11.8089C47.1919 12.049 47.5736 12.169 48.029 12.169ZM56.562 13V3.54545H57.6514V7.03551H57.7438C57.8238 6.91241 57.9346 6.75544 58.0762 6.56463C58.2208 6.37074 58.427 6.19839 58.6948 6.04759C58.9656 5.8937 59.3318 5.81676 59.7935 5.81676C60.3906 5.81676 60.9168 5.96603 61.3723 6.26456C61.8278 6.56309 62.1833 6.98627 62.4387 7.53409C62.6942 8.08191 62.8219 8.72822 62.8219 9.47301C62.8219 10.224 62.6942 10.8749 62.4387 11.4258C62.1833 11.9736 61.8294 12.3983 61.3769 12.6999C60.9245 12.9985 60.4029 13.1477 59.812 13.1477C59.3565 13.1477 58.9918 13.0723 58.7178 12.9215C58.4439 12.7676 58.2331 12.5937 58.0854 12.3999C57.9377 12.2029 57.8238 12.0398 57.7438 11.9105H57.6145V13H56.562ZM57.633 9.45455C57.633 9.99006 57.7115 10.4625 57.8684 10.8718C58.0254 11.2781 58.2547 11.5966 58.5563 11.8274C58.8579 12.0552 59.2272 12.169 59.6642 12.169C60.1197 12.169 60.4998 12.049 60.8045 11.8089C61.1123 11.5658 61.3431 11.2396 61.497 10.8303C61.6539 10.4179 61.7324 9.95928 61.7324 9.45455C61.7324 8.95597 61.6555 8.50663 61.5016 8.10653C61.3508 7.70336 61.1215 7.38482 60.8137 7.15092C60.509 6.91394 60.1259 6.79545 59.6642 6.79545C59.221 6.79545 58.8486 6.90779 58.547 7.13246C58.2454 7.35405 58.0177 7.66489 57.8638 8.06499C57.7099 8.462 57.633 8.92519 57.633 9.45455ZM64.6762 15.6591C64.4916 15.6591 64.3269 15.6437 64.1823 15.6129C64.0376 15.5852 63.9376 15.5575 63.8822 15.5298L64.1592 14.5696C64.4239 14.6373 64.6578 14.6619 64.8609 14.6435C65.064 14.625 65.2441 14.5342 65.401 14.3711C65.5611 14.2111 65.7073 13.951 65.8396 13.5909L66.0427 13.0369L63.4206 5.90909H64.6024L66.5598 11.5597H66.6336L68.591 5.90909H69.7728L66.7629 14.0341C66.6275 14.4003 66.4597 14.7035 66.2597 14.9435C66.0597 15.1867 65.8273 15.3667 65.5626 15.4837C65.301 15.6006 65.0056 15.6591 64.6762 15.6591Z" fill="white"/>
</g>
<defs>
<clipPath id="clip0_515_3107">
<rect width="174" height="16" fill="white"/>
</clipPath>
</defs>
</svg>
