<svg width="33" height="28" viewBox="0 0 33 28" fill="none" xmlns="http://www.w3.org/2000/svg">
<path d="M32.4942 3.99391C31.3113 4.51807 30.0406 4.87224 28.7046 5.03232C30.0831 4.20753 31.1143 2.9094 31.606 1.38016C30.3109 2.14939 28.8935 2.69085 27.4155 2.98099C26.4215 1.91972 25.105 1.21629 23.6703 0.979912C22.2356 0.743538 20.7629 0.987446 19.4811 1.67377C18.1992 2.36009 17.1797 3.45042 16.581 4.77549C15.9823 6.10056 15.8378 7.58622 16.17 9.00182C13.5459 8.87007 10.9788 8.18802 8.63533 6.99994C6.29187 5.81186 4.22442 4.1443 2.56714 2.10549C2.00048 3.08299 1.67464 4.21632 1.67464 5.42332C1.67401 6.5099 1.94159 7.57983 2.45364 8.5382C2.96569 9.49656 3.70637 10.3137 4.60998 10.9172C3.56203 10.8838 2.53721 10.6007 1.62081 10.0912V10.1762C1.6207 11.7002 2.14786 13.1773 3.11282 14.3568C4.07778 15.5364 5.42112 16.3457 6.91489 16.6476C5.94275 16.9107 4.92354 16.9494 3.93423 16.7609C4.35568 18.0722 5.17664 19.2189 6.28216 20.0404C7.38769 20.8619 8.72244 21.3172 10.0996 21.3424C7.76182 23.1776 4.87473 24.173 1.90273 24.1687C1.37627 24.1688 0.850251 24.1381 0.327393 24.0766C3.34415 26.0162 6.85587 27.0457 10.4424 27.0417C22.5832 27.0417 29.2203 16.9862 29.2203 8.26516C29.2203 7.98182 29.2132 7.69566 29.2005 7.41232C30.4915 6.4787 31.6058 5.32259 32.4914 3.99816L32.4942 3.99391Z" fill="#1D9BF0"/>
</svg>
