<svg width="40" height="40" viewBox="0 0 40 40" fill="none" xmlns="http://www.w3.org/2000/svg">
<g clip-path="url(#clip0_1432_6653)">
<circle cx="20" cy="20" r="20" fill="white"/>
<path d="M27.1868 12.9974C25.8289 12.3305 24.3923 11.8567 22.9151 11.5884C22.7311 11.9376 22.5161 12.4072 22.3678 12.7808C20.7751 12.5294 19.197 12.5294 17.6335 12.7808C17.4854 12.4073 17.2655 11.9376 17.0798 11.5884C15.6011 11.8568 14.1633 12.3318 12.8048 13.0009C10.1014 17.2888 9.36849 21.4701 9.73489 25.5923C11.528 26.9977 13.2656 27.8515 14.974 28.4102C15.3986 27.7974 15.7739 27.1485 16.0961 26.4704C15.4827 26.2253 14.8914 25.9233 14.3292 25.5678C14.4771 25.4527 14.6216 25.3328 14.7624 25.2081C18.1693 26.8807 21.8711 26.8807 25.2374 25.2081C25.3788 25.332 25.5233 25.4519 25.6706 25.5678C25.1074 25.9242 24.515 26.2269 23.9004 26.4722C24.2244 27.1531 24.599 27.8025 25.0225 28.4119C26.7325 27.8533 28.4718 26.9995 30.2648 25.5923C30.6948 20.8137 29.5304 16.6707 27.1868 12.9973V12.9974ZM16.5603 23.0573C15.5375 23.0573 14.6988 22.0551 14.6988 20.8347C14.6988 19.6143 15.5197 18.6105 16.5603 18.6105C17.601 18.6105 18.4397 19.6126 18.4218 20.8347C18.4234 22.0551 17.601 23.0573 16.5603 23.0573ZM23.4394 23.0573C22.4167 23.0573 21.578 22.0551 21.578 20.8347C21.578 19.6143 22.3988 18.6105 23.4394 18.6105C24.4801 18.6105 25.3188 19.6126 25.3009 20.8347C25.3009 22.0551 24.4801 23.0573 23.4394 23.0573Z" fill="#5865F2"/>
</g>
<defs>
<clipPath id="clip0_1432_6653">
<rect width="40" height="40" fill="white"/>
</clipPath>
</defs>
</svg>
