<svg width="40" height="40" viewBox="0 0 40 40" fill="none" xmlns="http://www.w3.org/2000/svg">
<g clip-path="url(#clip0_1432_6645)">
<circle cx="20" cy="20" r="20" fill="white"/>
<path d="M29.1078 16.2447C29.0975 15.4749 28.9532 14.7128 28.6812 13.9924C28.4454 13.3847 28.0852 12.8329 27.6236 12.3721C27.1621 11.9113 26.6093 11.5517 26.0006 11.3163C25.2883 11.0493 24.5358 10.905 23.7752 10.8894C22.7958 10.8457 22.4853 10.8335 19.9991 10.8335C17.513 10.8335 17.1944 10.8335 16.2221 10.8894C15.4618 10.9051 14.7096 11.0494 13.9976 11.3163C13.3889 11.5516 12.8361 11.9111 12.3745 12.3719C11.9129 12.8327 11.5527 13.3847 11.3171 13.9924C11.0492 14.703 10.9049 15.454 10.8905 16.2132C10.8467 17.1919 10.8335 17.5019 10.8335 19.9839C10.8335 22.4659 10.8335 22.783 10.8905 23.7546C10.9058 24.5149 11.0493 25.265 11.3171 25.9775C11.5531 26.585 11.9136 27.1367 12.3753 27.5973C12.837 28.0579 13.3899 28.4173 13.9987 28.6525C14.7087 28.9302 15.461 29.0849 16.2231 29.1099C17.2035 29.1536 17.514 29.1668 20.0002 29.1668C22.4863 29.1668 22.8049 29.1668 23.7772 29.1099C24.5378 29.095 25.2904 28.951 26.0027 28.6841C26.6112 28.4483 27.1638 28.0886 27.6253 27.6279C28.0868 27.1671 28.4471 26.6154 28.6832 26.0079C28.951 25.2965 29.0945 24.5464 29.1098 23.7851C29.1536 22.8074 29.1668 22.4974 29.1668 20.0144C29.1648 17.5324 29.1648 17.2173 29.1078 16.2447ZM19.993 24.6775C17.3929 24.6775 15.2865 22.5746 15.2865 19.9788C15.2865 17.383 17.3929 15.2801 19.993 15.2801C21.2413 15.2801 22.4384 15.7752 23.321 16.6563C24.2037 17.5375 24.6996 18.7326 24.6996 19.9788C24.6996 21.225 24.2037 22.4201 23.321 23.3013C22.4384 24.1825 21.2413 24.6775 19.993 24.6775ZM24.8869 16.202C24.7427 16.2021 24.5999 16.1739 24.4667 16.1188C24.3335 16.0638 24.2125 15.9831 24.1105 15.8814C24.0086 15.7796 23.9278 15.6588 23.8727 15.5258C23.8176 15.3928 23.7893 15.2502 23.7894 15.1063C23.7894 14.9625 23.8178 14.8201 23.8729 14.6872C23.928 14.5544 24.0088 14.4336 24.1107 14.3319C24.2126 14.2303 24.3335 14.1496 24.4666 14.0945C24.5997 14.0395 24.7423 14.0112 24.8864 14.0112C25.0304 14.0112 25.1731 14.0395 25.3062 14.0945C25.4393 14.1496 25.5602 14.2303 25.662 14.3319C25.7639 14.4336 25.8447 14.5544 25.8998 14.6872C25.955 14.8201 25.9833 14.9625 25.9833 15.1063C25.9833 15.7121 25.4926 16.202 24.8869 16.202Z" fill="url(#paint0_radial_1432_6645)"/>
<path d="M29.1078 16.2447C29.0975 15.4749 28.9532 14.7128 28.6812 13.9924C28.4454 13.3847 28.0852 12.8329 27.6236 12.3721C27.1621 11.9113 26.6093 11.5517 26.0006 11.3163C25.2883 11.0493 24.5358 10.905 23.7752 10.8894C22.7958 10.8457 22.4853 10.8335 19.9991 10.8335C17.513 10.8335 17.1944 10.8335 16.2221 10.8894C15.4618 10.9051 14.7096 11.0494 13.9976 11.3163C13.3889 11.5516 12.8361 11.9111 12.3745 12.3719C11.9129 12.8327 11.5527 13.3847 11.3171 13.9924C11.0492 14.703 10.9049 15.454 10.8905 16.2132C10.8467 17.1919 10.8335 17.5019 10.8335 19.9839C10.8335 22.4659 10.8335 22.783 10.8905 23.7546C10.9058 24.5149 11.0493 25.265 11.3171 25.9775C11.5531 26.585 11.9136 27.1367 12.3753 27.5973C12.837 28.0579 13.3899 28.4173 13.9987 28.6525C14.7087 28.9302 15.461 29.0849 16.2231 29.1099C17.2035 29.1536 17.514 29.1668 20.0002 29.1668C22.4863 29.1668 22.8049 29.1668 23.7772 29.1099C24.5378 29.095 25.2904 28.951 26.0027 28.6841C26.6112 28.4483 27.1638 28.0886 27.6253 27.6279C28.0868 27.1671 28.4471 26.6154 28.6832 26.0079C28.951 25.2965 29.0945 24.5464 29.1098 23.7851C29.1536 22.8074 29.1668 22.4974 29.1668 20.0144C29.1648 17.5324 29.1648 17.2173 29.1078 16.2447ZM19.993 24.6775C17.3929 24.6775 15.2865 22.5746 15.2865 19.9788C15.2865 17.383 17.3929 15.2801 19.993 15.2801C21.2413 15.2801 22.4384 15.7752 23.321 16.6563C24.2037 17.5375 24.6996 18.7326 24.6996 19.9788C24.6996 21.225 24.2037 22.4201 23.321 23.3013C22.4384 24.1825 21.2413 24.6775 19.993 24.6775ZM24.8869 16.202C24.7427 16.2021 24.5999 16.1739 24.4667 16.1188C24.3335 16.0638 24.2125 15.9831 24.1105 15.8814C24.0086 15.7796 23.9278 15.6588 23.8727 15.5258C23.8176 15.3928 23.7893 15.2502 23.7894 15.1063C23.7894 14.9625 23.8178 14.8201 23.8729 14.6872C23.928 14.5544 24.0088 14.4336 24.1107 14.3319C24.2126 14.2303 24.3335 14.1496 24.4666 14.0945C24.5997 14.0395 24.7423 14.0112 24.8864 14.0112C25.0304 14.0112 25.1731 14.0395 25.3062 14.0945C25.4393 14.1496 25.5602 14.2303 25.662 14.3319C25.7639 14.4336 25.8447 14.5544 25.8998 14.6872C25.955 14.8201 25.9833 14.9625 25.9833 15.1063C25.9833 15.7121 25.4926 16.202 24.8869 16.202Z" fill="url(#paint1_radial_1432_6645)"/>
<path d="M19.993 23.031C21.6815 23.031 23.0503 21.6645 23.0503 19.9788C23.0503 18.2932 21.6815 16.9267 19.993 16.9267C18.3046 16.9267 16.9358 18.2932 16.9358 19.9788C16.9358 21.6645 18.3046 23.031 19.993 23.031Z" fill="url(#paint2_radial_1432_6645)"/>
<path d="M19.993 23.031C21.6815 23.031 23.0503 21.6645 23.0503 19.9788C23.0503 18.2932 21.6815 16.9267 19.993 16.9267C18.3046 16.9267 16.9358 18.2932 16.9358 19.9788C16.9358 21.6645 18.3046 23.031 19.993 23.031Z" fill="url(#paint3_radial_1432_6645)"/>
</g>
<defs>
<radialGradient id="paint0_radial_1432_6645" cx="0" cy="0" r="1" gradientUnits="userSpaceOnUse" gradientTransform="translate(26.3252 31.6418) rotate(-115.776) scale(25.0009 37.1859)">
<stop offset="0.24392" stop-color="#FF1B90"/>
<stop offset="0.436673" stop-color="#F80261"/>
<stop offset="0.688476" stop-color="#ED00C0"/>
<stop offset="0.776787" stop-color="#C500E9"/>
<stop offset="0.893155" stop-color="#7017FF"/>
</radialGradient>
<radialGradient id="paint1_radial_1432_6645" cx="0" cy="0" r="1" gradientUnits="userSpaceOnUse" gradientTransform="translate(17.4793 28.5343) rotate(-57.4396) scale(10.8326 11.2675)">
<stop stop-color="#FFD600"/>
<stop offset="0.484375" stop-color="#FF6930"/>
<stop offset="0.734375" stop-color="#FE3B36"/>
<stop offset="1" stop-color="#FE3B36" stop-opacity="0"/>
</radialGradient>
<radialGradient id="paint2_radial_1432_6645" cx="0" cy="0" r="1" gradientUnits="userSpaceOnUse" gradientTransform="translate(26.3252 31.6418) rotate(-115.776) scale(25.0009 37.1859)">
<stop offset="0.24392" stop-color="#FF1B90"/>
<stop offset="0.436673" stop-color="#F80261"/>
<stop offset="0.688476" stop-color="#ED00C0"/>
<stop offset="0.776787" stop-color="#C500E9"/>
<stop offset="0.893155" stop-color="#7017FF"/>
</radialGradient>
<radialGradient id="paint3_radial_1432_6645" cx="0" cy="0" r="1" gradientUnits="userSpaceOnUse" gradientTransform="translate(17.4793 28.5343) rotate(-57.4396) scale(10.8326 11.2675)">
<stop stop-color="#FFD600"/>
<stop offset="0.484375" stop-color="#FF6930"/>
<stop offset="0.734375" stop-color="#FE3B36"/>
<stop offset="1" stop-color="#FE3B36" stop-opacity="0"/>
</radialGradient>
<clipPath id="clip0_1432_6645">
<rect width="40" height="40" fill="white"/>
</clipPath>
</defs>
</svg>
