<svg width="41" height="42" viewBox="0 0 41 42" fill="none" xmlns="http://www.w3.org/2000/svg">
<path d="M40.625 16.1251V35.2501C40.625 36.9408 39.9534 38.5623 38.7578 39.7579C37.5623 40.9534 35.9408 41.6251 34.25 41.6251H6.625C4.93424 41.6251 3.31274 40.9534 2.11719 39.7579C0.92165 38.5623 0.25 36.9408 0.25 35.2501V16.1251C0.25 13.7663 1.53137 11.7051 3.4375 10.6043L3.43112 10.5958L20.4333 0.77832L37.4481 10.6022L37.446 10.6086C38.413 11.1686 39.2158 11.9731 39.7738 12.9414C40.3317 13.9096 40.6253 15.0076 40.625 16.1251V16.1251ZM3.89863 12.8653L20.4375 23.6051L36.9764 12.8653L20.4333 3.2327L3.89863 12.8653V12.8653ZM20.4375 26.1381L2.65975 14.5951C2.47123 15.0831 2.37469 15.6019 2.375 16.1251V35.2501C2.375 36.3772 2.82277 37.4582 3.6198 38.2553C4.41683 39.0523 5.49783 39.5001 6.625 39.5001H34.25C35.3772 39.5001 36.4582 39.0523 37.2552 38.2553C38.0522 37.4582 38.5 36.3772 38.5 35.2501V16.1251C38.5 15.5853 38.4001 15.0689 38.2152 14.5951L20.4375 26.1359V26.1381Z" fill="#FF66C4"/>
</svg>
