<svg width="40" height="40" viewBox="0 0 40 40" fill="none" xmlns="http://www.w3.org/2000/svg">
<g clip-path="url(#clip0_1432_6649)">
<circle cx="20" cy="20" r="20" fill="white"/>
<path d="M30.0832 13.7072C29.3416 14.0379 28.5449 14.2614 27.7073 14.3624C28.5715 13.842 29.218 13.0229 29.5263 12.058C28.7144 12.5433 27.8258 12.885 26.8991 13.0681C26.2759 12.3984 25.4506 11.9546 24.5511 11.8054C23.6516 11.6563 22.7284 11.8102 21.9247 12.2432C21.121 12.6763 20.4819 13.3643 20.1066 14.2004C19.7312 15.0365 19.6406 15.9739 19.8488 16.8671C18.2037 16.784 16.5943 16.3536 15.1251 15.604C13.6559 14.8543 12.3597 13.8021 11.3207 12.5156C10.9654 13.1324 10.7611 13.8475 10.7611 14.6091C10.7608 15.2948 10.9285 15.9699 11.2495 16.5746C11.5706 17.1793 12.0349 17.6949 12.6014 18.0757C11.9444 18.0546 11.3019 17.876 10.7274 17.5545V17.6082C10.7273 18.5698 11.0578 19.5018 11.6628 20.246C12.2678 20.9903 13.11 21.501 14.0465 21.6915C13.437 21.8575 12.798 21.8819 12.1778 21.763C12.442 22.5904 12.9567 23.3139 13.6498 23.8323C14.3429 24.3507 15.1797 24.6379 16.0431 24.6538C14.5774 25.8118 12.7674 26.4399 10.9041 26.4372C10.5741 26.4373 10.2443 26.4179 9.9165 26.3791C11.8078 27.603 14.0095 28.2525 16.258 28.25C23.8696 28.25 28.0306 21.9051 28.0306 16.4023C28.0306 16.2235 28.0262 16.043 28.0182 15.8642C28.8276 15.2751 29.5262 14.5456 30.0814 13.7099L30.0832 13.7072Z" fill="#1D9BF0"/>
</g>
<defs>
<clipPath id="clip0_1432_6649">
<rect width="40" height="40" fill="white"/>
</clipPath>
</defs>
</svg>
