<svg width="46" height="46" viewBox="0 0 46 46" fill="none" xmlns="http://www.w3.org/2000/svg">
<circle cx="23" cy="23" r="23" fill="white"/>
<path fill-rule="evenodd" clip-rule="evenodd" d="M20.5278 19.0857H24.0989V20.8646C24.6134 19.8415 25.9326 18.9223 27.9143 18.9223C31.7134 18.9223 32.6153 20.9588 32.6153 24.6953V31.6155H28.7691V25.5463C28.7691 23.4184 28.2547 22.2184 26.9451 22.2184C25.1288 22.2184 24.3739 23.5117 24.3739 25.5453V31.6155H20.5278V19.0857V19.0857ZM13.9326 31.4521H17.7788V18.9223H13.9326V31.4521V31.4521ZM18.3297 14.8367C18.3299 15.1591 18.2659 15.4783 18.1416 15.7757C18.0173 16.0732 17.8351 16.343 17.6057 16.5694C17.1407 17.0315 16.5113 17.2902 15.8557 17.2886C15.2012 17.2882 14.5733 17.0301 14.1076 16.5703C13.879 16.3431 13.6974 16.0731 13.5733 15.7756C13.4492 15.4781 13.3851 15.159 13.3845 14.8367C13.3845 14.1857 13.6441 13.5627 14.1086 13.103C14.5738 12.6426 15.2021 12.3845 15.8566 12.3848C16.5124 12.3848 17.1413 12.6434 17.6057 13.103C18.0691 13.5627 18.3297 14.1857 18.3297 14.8367Z" fill="#0D4B9E"/>
</svg>
