<svg width="46" height="46" viewBox="0 0 46 46" fill="none" xmlns="http://www.w3.org/2000/svg">
<circle cx="23" cy="23" r="23" fill="white"/>
<path fill-rule="evenodd" clip-rule="evenodd" d="M20.5279 19.0857H24.0991V20.8646C24.6135 19.8415 25.9327 18.9223 27.9145 18.9223C31.7135 18.9223 32.6154 20.9588 32.6154 24.6953V31.6155H28.7693V25.5463C28.7693 23.4184 28.2548 22.2184 26.9452 22.2184C25.1289 22.2184 24.3741 23.5117 24.3741 25.5453V31.6155H20.5279V19.0857ZM13.9327 31.4521H17.7789V18.9223H13.9327V31.4521ZM18.3298 14.8367C18.33 15.1591 18.266 15.4783 18.1417 15.7757C18.0174 16.0732 17.8353 16.343 17.6058 16.5694C17.1408 17.0315 16.5114 17.2902 15.8558 17.2886C15.2014 17.2882 14.5734 17.0301 14.1077 16.5703C13.8791 16.3431 13.6975 16.0731 13.5734 15.7756C13.4494 15.4781 13.3852 15.159 13.3846 14.8367C13.3846 14.1857 13.6443 13.5627 14.1087 13.103C14.574 12.6426 15.2022 12.3845 15.8568 12.3848C16.5125 12.3848 17.1414 12.6434 17.6058 13.103C18.0693 13.5627 18.3298 14.1857 18.3298 14.8367Z" fill="#235DC0"/>
</svg>
