<svg width="46" height="46" viewBox="0 0 46 46" fill="none" xmlns="http://www.w3.org/2000/svg">
<circle cx="23" cy="23" r="23" fill="white"/>
<path d="M33.6727 16.5256C32.9073 16.8648 32.0851 17.0939 31.2206 17.1975C32.1126 16.6638 32.7798 15.8239 33.098 14.8344C32.26 15.3321 31.3429 15.6825 30.3865 15.8702C29.7433 15.1835 28.8914 14.7283 27.9631 14.5754C27.0348 14.4224 26.0819 14.5803 25.2524 15.0243C24.423 15.4684 23.7633 16.1739 23.3759 17.0313C22.9885 17.8887 22.895 18.8501 23.11 19.766C21.412 19.6808 19.751 19.2394 18.2346 18.4707C16.7183 17.7019 15.3805 16.6229 14.3081 15.3037C13.9415 15.9362 13.7306 16.6695 13.7306 17.4505C13.7302 18.1536 13.9034 18.8459 14.2347 19.466C14.566 20.0862 15.0453 20.6149 15.63 21.0054C14.9519 20.9838 14.2888 20.8006 13.6958 20.4709V20.5259C13.6957 21.512 14.0368 22.4678 14.6612 23.231C15.2856 23.9943 16.1548 24.518 17.1214 24.7133C16.4924 24.8835 15.8329 24.9086 15.1927 24.7866C15.4654 25.6351 15.9966 26.3771 16.712 26.9086C17.4273 27.4402 18.291 27.7348 19.1821 27.7511C17.6694 28.9386 15.8013 29.5827 13.8782 29.5799C13.5376 29.58 13.1972 29.5601 12.8589 29.5203C14.8109 30.7754 17.0832 31.4415 19.4039 31.4389C27.2597 31.4389 31.5543 24.9324 31.5543 19.2894C31.5543 19.106 31.5497 18.9209 31.5415 18.7375C32.3768 18.1334 33.0979 17.3854 33.6709 16.5284L33.6727 16.5256Z" fill="#235DC0"/>
</svg>
